<svg xmlns="http://www.w3.org/2000/svg" xmlns:xlink="http://www.w3.org/1999/xlink" width="100" zoomAndPan="magnify" viewBox="0 0 75 74.999997" height="100" preserveAspectRatio="xMidYMid meet" version="1.0"><defs><clipPath id="c0070cc877"><path d="M 8.101562 39 L 15 39 L 15 47 L 8.101562 47 Z M 8.101562 39 " clip-rule="nonzero"/></clipPath><clipPath id="9811a5158c"><path d="M 8.101562 21 L 15 21 L 15 28 L 8.101562 28 Z M 8.101562 21 " clip-rule="nonzero"/></clipPath><clipPath id="bcda78d759"><path d="M 8.101562 30 L 15 30 L 15 38 L 8.101562 38 Z M 8.101562 30 " clip-rule="nonzero"/></clipPath><clipPath id="74e7a84ed5"><path d="M 15 7.5 L 42 7.5 L 42 67.5 L 15 67.5 Z M 15 7.5 " clip-rule="nonzero"/></clipPath><clipPath id="185f25e942"><path d="M 16 7.5 L 42 7.5 L 42 15 L 16 15 Z M 16 7.5 " clip-rule="nonzero"/></clipPath><clipPath id="c1ccea19b4"><path d="M 15 7.5 L 42 7.5 L 42 67.5 L 15 67.5 Z M 15 7.5 " clip-rule="nonzero"/></clipPath><clipPath id="37c23c7bfd"><path d="M 57 46 L 66.601562 46 L 66.601562 66 L 57 66 Z M 57 46 " clip-rule="nonzero"/></clipPath><clipPath id="868a138de9"><path d="M 59 46 L 66.601562 46 L 66.601562 64 L 59 64 Z M 59 46 " clip-rule="nonzero"/></clipPath></defs><g clip-path="url(#c0070cc877)"><path fill="#ffde3b" d="M 14.6875 42.859375 C 14.6875 43.292969 14.605469 43.710938 14.441406 44.113281 C 14.277344 44.511719 14.039062 44.867188 13.734375 45.171875 C 13.429688 45.480469 13.078125 45.714844 12.679688 45.878906 C 12.28125 46.046875 11.867188 46.128906 11.4375 46.128906 C 11.003906 46.128906 10.589844 46.046875 10.191406 45.878906 C 9.792969 45.714844 9.441406 45.480469 9.136719 45.171875 C 8.832031 44.867188 8.59375 44.511719 8.429688 44.113281 C 8.265625 43.710938 8.183594 43.292969 8.183594 42.859375 C 8.183594 42.425781 8.265625 42.011719 8.429688 41.609375 C 8.59375 41.207031 8.832031 40.855469 9.136719 40.546875 C 9.441406 40.242188 9.792969 40.007812 10.191406 39.839844 C 10.589844 39.675781 11.003906 39.589844 11.4375 39.589844 C 11.867188 39.589844 12.28125 39.675781 12.679688 39.839844 C 13.078125 40.007812 13.429688 40.242188 13.734375 40.546875 C 14.039062 40.855469 14.277344 41.207031 14.441406 41.609375 C 14.605469 42.011719 14.6875 42.425781 14.6875 42.859375 Z M 14.6875 42.859375 " fill-opacity="1" fill-rule="nonzero"/><path fill="#564e59" d="M 8.101562 42.859375 C 8.101562 41.011719 9.597656 39.507812 11.4375 39.507812 C 13.273438 39.507812 14.769531 41.011719 14.769531 42.859375 C 14.769531 44.707031 13.273438 46.210938 11.4375 46.210938 C 9.597656 46.210938 8.101562 44.707031 8.101562 42.859375 Z M 8.265625 42.859375 C 8.265625 44.617188 9.6875 46.046875 11.4375 46.046875 C 13.183594 46.046875 14.605469 44.617188 14.605469 42.859375 C 14.605469 41.105469 13.183594 39.675781 11.4375 39.675781 C 9.6875 39.675781 8.265625 41.101562 8.265625 42.859375 Z M 8.265625 42.859375 " fill-opacity="1" fill-rule="nonzero"/></g><path fill="#564e59" d="M 10.125 44.265625 C 10.109375 44.265625 10.089844 44.265625 10.070312 44.261719 C 10.039062 44.257812 10.019531 44.234375 10.019531 44.203125 C 10.015625 44.167969 10.035156 44.144531 10.066406 44.136719 C 10.085938 44.132812 10.105469 44.136719 10.125 44.136719 C 11.007812 44.136719 11.890625 44.132812 12.773438 44.136719 C 12.839844 44.136719 12.835938 44.113281 12.816406 44.066406 C 12.734375 43.851562 12.652344 43.636719 12.578125 43.417969 C 12.546875 43.328125 12.511719 43.289062 12.410156 43.289062 C 12.023438 43.277344 11.636719 43.253906 11.246094 43.234375 C 10.832031 43.210938 10.414062 43.191406 10 43.167969 C 9.890625 43.164062 9.8125 43.101562 9.792969 43 C 9.738281 42.679688 9.683594 42.363281 9.628906 42.046875 C 9.605469 41.910156 9.683594 41.8125 9.820312 41.792969 C 9.976562 41.773438 10.136719 41.75 10.292969 41.730469 C 10.894531 41.644531 11.5 41.5625 12.101562 41.480469 C 12.304688 41.453125 12.503906 41.414062 12.707031 41.40625 C 12.804688 41.402344 12.863281 41.367188 12.914062 41.304688 C 13.011719 41.1875 13.136719 41.152344 13.28125 41.164062 C 13.332031 41.167969 13.367188 41.183594 13.371094 41.242188 C 13.375 41.289062 13.335938 41.324219 13.277344 41.316406 C 13.113281 41.289062 13.027344 41.398438 12.9375 41.5 C 12.925781 41.511719 12.921875 41.523438 12.929688 41.539062 C 12.949219 41.589844 12.9375 41.640625 12.929688 41.695312 C 12.867188 42.035156 12.804688 42.375 12.742188 42.71875 C 12.71875 42.855469 12.703125 42.996094 12.664062 43.125 C 12.640625 43.207031 12.65625 43.265625 12.679688 43.335938 C 12.78125 43.601562 12.878906 43.867188 12.980469 44.132812 C 13.015625 44.234375 12.996094 44.265625 12.890625 44.265625 C 12.429688 44.265625 11.96875 44.265625 11.507812 44.265625 C 11.046875 44.265625 10.585938 44.265625 10.125 44.265625 Z M 12.660156 42.105469 C 12.699219 42.109375 12.714844 42.097656 12.722656 42.058594 C 12.746094 41.914062 12.773438 41.777344 12.796875 41.636719 C 12.808594 41.566406 12.777344 41.53125 12.710938 41.539062 C 12.550781 41.558594 12.386719 41.582031 12.222656 41.605469 C 12.195312 41.609375 12.1875 41.625 12.183594 41.644531 C 12.167969 41.789062 12.152344 41.933594 12.132812 42.078125 C 12.128906 42.113281 12.148438 42.113281 12.171875 42.113281 C 12.257812 42.113281 12.34375 42.113281 12.429688 42.113281 C 12.429688 42.113281 12.429688 42.109375 12.429688 42.105469 C 12.507812 42.105469 12.585938 42.105469 12.660156 42.105469 Z M 11.941406 42.121094 C 11.976562 42.121094 11.992188 42.109375 11.996094 42.070312 C 12.011719 41.941406 12.027344 41.808594 12.042969 41.675781 C 12.046875 41.640625 12.042969 41.628906 12.003906 41.632812 C 11.800781 41.664062 11.597656 41.691406 11.394531 41.714844 C 11.363281 41.71875 11.347656 41.730469 11.347656 41.761719 C 11.347656 41.871094 11.347656 41.976562 11.34375 42.085938 C 11.34375 42.125 11.359375 42.128906 11.394531 42.128906 C 11.484375 42.125 11.574219 42.128906 11.664062 42.128906 C 11.664062 42.125 11.664062 42.121094 11.664062 42.117188 C 11.753906 42.117188 11.847656 42.117188 11.941406 42.121094 Z M 11.160156 42.132812 C 11.195312 42.136719 11.210938 42.121094 11.207031 42.082031 C 11.207031 41.984375 11.210938 41.886719 11.210938 41.785156 C 11.210938 41.753906 11.203125 41.742188 11.167969 41.75 C 10.957031 41.777344 10.746094 41.808594 10.535156 41.835938 C 10.496094 41.839844 10.480469 41.851562 10.488281 41.894531 C 10.5 41.957031 10.503906 42.023438 10.507812 42.089844 C 10.511719 42.132812 10.527344 42.144531 10.570312 42.144531 C 10.664062 42.140625 10.761719 42.144531 10.855469 42.144531 C 10.855469 42.140625 10.855469 42.136719 10.855469 42.132812 C 10.957031 42.132812 11.058594 42.132812 11.160156 42.132812 Z M 11.386719 42.265625 C 11.351562 42.265625 11.339844 42.277344 11.339844 42.308594 C 11.339844 42.410156 11.339844 42.507812 11.335938 42.605469 C 11.335938 42.640625 11.347656 42.648438 11.378906 42.652344 C 11.546875 42.652344 11.714844 42.652344 11.882812 42.65625 C 11.914062 42.660156 11.925781 42.648438 11.929688 42.617188 C 11.941406 42.511719 11.953125 42.40625 11.96875 42.304688 C 11.972656 42.265625 11.960938 42.257812 11.925781 42.257812 C 11.835938 42.257812 11.746094 42.257812 11.65625 42.257812 C 11.65625 42.261719 11.65625 42.265625 11.65625 42.265625 C 11.566406 42.265625 11.476562 42.269531 11.386719 42.265625 Z M 10.578125 42.28125 C 10.542969 42.28125 10.527344 42.292969 10.535156 42.328125 C 10.542969 42.417969 10.550781 42.503906 10.5625 42.59375 C 10.5625 42.621094 10.574219 42.636719 10.605469 42.640625 C 10.789062 42.640625 10.976562 42.644531 11.160156 42.648438 C 11.1875 42.648438 11.199219 42.640625 11.199219 42.609375 C 11.199219 42.511719 11.203125 42.410156 11.203125 42.3125 C 11.207031 42.277344 11.191406 42.269531 11.160156 42.273438 C 11.0625 42.273438 10.964844 42.273438 10.867188 42.273438 C 10.867188 42.277344 10.867188 42.277344 10.867188 42.28125 C 10.769531 42.28125 10.671875 42.28125 10.578125 42.28125 Z M 12.15625 42.25 C 12.125 42.25 12.109375 42.265625 12.105469 42.296875 C 12.09375 42.40625 12.082031 42.511719 12.066406 42.617188 C 12.0625 42.652344 12.074219 42.664062 12.105469 42.664062 C 12.261719 42.664062 12.417969 42.667969 12.570312 42.667969 C 12.597656 42.667969 12.613281 42.664062 12.621094 42.632812 C 12.640625 42.515625 12.660156 42.402344 12.683594 42.285156 C 12.6875 42.253906 12.679688 42.242188 12.648438 42.246094 C 12.566406 42.246094 12.484375 42.246094 12.402344 42.246094 C 12.402344 42.246094 12.402344 42.25 12.402344 42.253906 C 12.320312 42.253906 12.238281 42.253906 12.15625 42.25 Z M 9.859375 42.292969 C 9.824219 42.292969 9.8125 42.304688 9.820312 42.34375 C 9.835938 42.421875 9.847656 42.5 9.859375 42.578125 C 9.867188 42.613281 9.878906 42.628906 9.914062 42.628906 C 10.070312 42.628906 10.226562 42.632812 10.378906 42.636719 C 10.414062 42.636719 10.429688 42.628906 10.421875 42.589844 C 10.410156 42.5 10.402344 42.414062 10.394531 42.324219 C 10.394531 42.292969 10.378906 42.285156 10.347656 42.285156 C 10.265625 42.285156 10.183594 42.285156 10.101562 42.285156 C 10.101562 42.289062 10.101562 42.292969 10.101562 42.292969 C 10.023438 42.296875 9.941406 42.296875 9.859375 42.292969 Z M 12.445312 43.15625 C 12.496094 43.160156 12.527344 43.136719 12.539062 43.082031 C 12.550781 43.003906 12.566406 42.925781 12.582031 42.847656 C 12.589844 42.816406 12.582031 42.804688 12.546875 42.804688 C 12.394531 42.804688 12.238281 42.800781 12.085938 42.800781 C 12.054688 42.800781 12.042969 42.808594 12.039062 42.839844 C 12.03125 42.921875 12.023438 43.007812 12.011719 43.089844 C 12.003906 43.125 12.019531 43.132812 12.050781 43.132812 C 12.121094 43.136719 12.1875 43.140625 12.257812 43.144531 C 12.320312 43.148438 12.382812 43.152344 12.445312 43.15625 Z M 10.625 42.777344 C 10.589844 42.777344 10.578125 42.785156 10.585938 42.820312 C 10.59375 42.886719 10.601562 42.953125 10.605469 43.019531 C 10.605469 43.054688 10.625 43.0625 10.652344 43.0625 C 10.820312 43.074219 10.988281 43.082031 11.152344 43.089844 C 11.183594 43.089844 11.195312 43.082031 11.195312 43.050781 C 11.195312 42.976562 11.195312 42.898438 11.199219 42.824219 C 11.199219 42.785156 11.179688 42.785156 11.152344 42.785156 C 11.0625 42.785156 10.972656 42.785156 10.882812 42.785156 C 10.882812 42.78125 10.882812 42.78125 10.882812 42.777344 C 10.796875 42.777344 10.710938 42.777344 10.625 42.777344 Z M 11.382812 42.789062 C 11.347656 42.785156 11.335938 42.796875 11.335938 42.835938 C 11.335938 42.910156 11.335938 42.984375 11.332031 43.0625 C 11.332031 43.09375 11.34375 43.101562 11.371094 43.101562 C 11.523438 43.109375 11.675781 43.113281 11.828125 43.125 C 11.855469 43.125 11.871094 43.117188 11.875 43.085938 C 11.882812 43.003906 11.890625 42.921875 11.902344 42.84375 C 11.910156 42.804688 11.894531 42.792969 11.859375 42.796875 C 11.78125 42.796875 11.699219 42.796875 11.621094 42.796875 C 11.621094 42.792969 11.621094 42.792969 11.621094 42.789062 C 11.542969 42.789062 11.460938 42.789062 11.382812 42.789062 Z M 10.328125 42.148438 C 10.363281 42.148438 10.378906 42.140625 10.371094 42.101562 C 10.363281 42.035156 10.355469 41.96875 10.351562 41.902344 C 10.347656 41.871094 10.335938 41.863281 10.308594 41.867188 C 10.144531 41.890625 9.984375 41.910156 9.824219 41.933594 C 9.78125 41.941406 9.761719 41.96875 9.765625 42.007812 C 9.765625 42.050781 9.777344 42.089844 9.78125 42.128906 C 9.785156 42.160156 9.808594 42.15625 9.832031 42.15625 C 9.917969 42.15625 10 42.15625 10.085938 42.15625 C 10.085938 42.152344 10.085938 42.152344 10.085938 42.148438 C 10.167969 42.148438 10.246094 42.148438 10.328125 42.148438 Z M 9.949219 42.765625 C 9.910156 42.761719 9.894531 42.769531 9.902344 42.816406 C 9.945312 43.066406 9.914062 43.019531 10.132812 43.035156 C 10.230469 43.042969 10.324219 43.046875 10.421875 43.054688 C 10.460938 43.054688 10.472656 43.042969 10.464844 43.003906 C 10.457031 42.941406 10.449219 42.878906 10.445312 42.816406 C 10.445312 42.785156 10.429688 42.773438 10.398438 42.773438 C 10.324219 42.773438 10.246094 42.773438 10.167969 42.773438 C 10.167969 42.769531 10.167969 42.769531 10.167969 42.765625 C 10.09375 42.765625 10.023438 42.765625 9.949219 42.765625 Z M 9.949219 42.765625 " fill-opacity="1" fill-rule="nonzero"/><path fill="#564e59" d="M 12.472656 44.320312 C 12.332031 44.320312 12.21875 44.4375 12.222656 44.578125 C 12.222656 44.722656 12.339844 44.835938 12.484375 44.835938 C 12.625 44.832031 12.738281 44.714844 12.734375 44.570312 C 12.730469 44.425781 12.613281 44.316406 12.472656 44.320312 Z M 12.472656 44.320312 " fill-opacity="1" fill-rule="nonzero"/><path fill="#564e59" d="M 10.292969 44.578125 C 10.292969 44.71875 10.40625 44.835938 10.546875 44.835938 C 10.6875 44.835938 10.804688 44.722656 10.808594 44.578125 C 10.808594 44.4375 10.691406 44.320312 10.546875 44.320312 C 10.40625 44.320312 10.292969 44.433594 10.292969 44.578125 Z M 10.292969 44.578125 " fill-opacity="1" fill-rule="nonzero"/><g clip-path="url(#9811a5158c)"><path fill="#ffde3b" d="M 14.6875 24.644531 C 14.6875 25.078125 14.605469 25.492188 14.441406 25.894531 C 14.277344 26.292969 14.039062 26.648438 13.734375 26.953125 C 13.429688 27.261719 13.078125 27.496094 12.679688 27.664062 C 12.28125 27.828125 11.867188 27.914062 11.4375 27.914062 C 11.003906 27.914062 10.589844 27.828125 10.191406 27.664062 C 9.792969 27.496094 9.441406 27.261719 9.136719 26.953125 C 8.832031 26.648438 8.59375 26.292969 8.429688 25.894531 C 8.265625 25.492188 8.183594 25.078125 8.183594 24.644531 C 8.183594 24.210938 8.265625 23.792969 8.429688 23.390625 C 8.59375 22.992188 8.832031 22.636719 9.136719 22.332031 C 9.441406 22.023438 9.792969 21.789062 10.191406 21.621094 C 10.589844 21.457031 11.003906 21.375 11.4375 21.375 C 11.867188 21.375 12.28125 21.457031 12.679688 21.621094 C 13.078125 21.789062 13.429688 22.023438 13.734375 22.332031 C 14.039062 22.636719 14.277344 22.992188 14.441406 23.390625 C 14.605469 23.792969 14.6875 24.210938 14.6875 24.644531 Z M 14.6875 24.644531 " fill-opacity="1" fill-rule="nonzero"/><path fill="#564e59" d="M 8.101562 24.644531 C 8.101562 22.792969 9.597656 21.292969 11.4375 21.292969 C 13.273438 21.292969 14.769531 22.792969 14.769531 24.644531 C 14.769531 26.492188 13.273438 27.996094 11.4375 27.996094 C 9.597656 27.996094 8.101562 26.492188 8.101562 24.644531 Z M 8.265625 24.644531 C 8.265625 26.402344 9.6875 27.828125 11.4375 27.828125 C 13.183594 27.828125 14.605469 26.398438 14.605469 24.644531 C 14.605469 22.886719 13.183594 21.457031 11.4375 21.457031 C 9.6875 21.457031 8.265625 22.886719 8.265625 24.644531 Z M 8.265625 24.644531 " fill-opacity="1" fill-rule="nonzero"/></g><path fill="#564e59" d="M 10.375 26.191406 C 10.347656 26.191406 10.320312 26.191406 10.296875 26.167969 C 10.230469 26.105469 10.164062 26.046875 10.097656 25.984375 C 10.082031 25.96875 10.074219 25.949219 10.074219 25.921875 C 10.089844 25.683594 10.105469 25.445312 10.121094 25.207031 C 10.152344 24.703125 10.183594 24.203125 10.214844 23.699219 C 10.21875 23.632812 10.230469 23.625 10.296875 23.625 C 10.515625 23.625 10.734375 23.621094 10.953125 23.625 C 11 23.625 11.007812 23.609375 11.007812 23.570312 C 11.003906 23.46875 11.007812 23.363281 11.007812 23.261719 C 11.007812 23.21875 11.007812 23.175781 11.019531 23.132812 C 11.082031 22.941406 11.214844 22.839844 11.402344 22.820312 C 11.589844 22.796875 11.742188 22.867188 11.84375 23.027344 C 11.859375 23.050781 11.878906 23.070312 11.902344 23.082031 C 12.039062 23.164062 12.117188 23.28125 12.121094 23.445312 C 12.121094 23.484375 12.121094 23.523438 12.117188 23.5625 C 12.113281 23.609375 12.128906 23.625 12.175781 23.625 C 12.320312 23.621094 12.46875 23.625 12.613281 23.621094 C 12.648438 23.621094 12.675781 23.632812 12.699219 23.65625 C 12.757812 23.714844 12.816406 23.769531 12.875 23.820312 C 12.898438 23.84375 12.910156 23.863281 12.910156 23.894531 C 12.917969 24.027344 12.925781 24.15625 12.933594 24.289062 C 12.972656 24.890625 13.011719 25.496094 13.046875 26.097656 C 13.050781 26.179688 13.042969 26.191406 12.960938 26.191406 C 12.53125 26.191406 12.101562 26.191406 11.671875 26.191406 C 11.238281 26.191406 10.804688 26.191406 10.375 26.191406 Z M 10.285156 24.277344 C 10.261719 24.652344 10.238281 25.027344 10.214844 25.402344 C 10.203125 25.566406 10.195312 25.730469 10.183594 25.890625 C 10.179688 25.910156 10.183594 25.925781 10.199219 25.9375 C 10.203125 25.941406 10.207031 25.945312 10.210938 25.949219 C 10.304688 26.074219 10.429688 26.097656 10.578125 26.09375 C 11.347656 26.085938 12.113281 26.089844 12.878906 26.09375 C 12.933594 26.09375 12.941406 26.078125 12.9375 26.03125 C 12.910156 25.632812 12.886719 25.238281 12.859375 24.839844 C 12.84375 24.558594 12.828125 24.277344 12.808594 23.996094 C 12.804688 23.921875 12.804688 23.921875 12.730469 23.921875 C 12.546875 23.921875 12.367188 23.921875 12.183594 23.921875 C 12.113281 23.921875 12.117188 23.90625 12.117188 23.992188 C 12.117188 24.054688 12.117188 24.117188 12.117188 24.183594 C 12.117188 24.222656 12.105469 24.253906 12.0625 24.253906 C 12.019531 24.253906 12.011719 24.222656 12.011719 24.183594 C 12.011719 24.113281 12.011719 24.039062 12.011719 23.964844 C 12.011719 23.933594 12.003906 23.917969 11.972656 23.921875 C 11.769531 23.921875 11.570312 23.921875 11.367188 23.921875 C 11.335938 23.921875 11.328125 23.929688 11.328125 23.964844 C 11.328125 24.039062 11.328125 24.113281 11.328125 24.183594 C 11.328125 24.222656 11.316406 24.253906 11.277344 24.253906 C 11.230469 24.253906 11.21875 24.222656 11.21875 24.183594 C 11.222656 24.109375 11.21875 24.03125 11.21875 23.957031 C 11.222656 23.929688 11.210938 23.921875 11.183594 23.921875 C 10.980469 23.921875 10.777344 23.921875 10.574219 23.921875 C 10.539062 23.917969 10.53125 23.9375 10.53125 23.96875 C 10.515625 24.246094 10.496094 24.523438 10.480469 24.804688 C 10.457031 25.167969 10.433594 25.53125 10.410156 25.894531 C 10.410156 25.910156 10.40625 25.921875 10.40625 25.933594 C 10.402344 25.972656 10.386719 25.992188 10.351562 25.988281 C 10.3125 25.984375 10.296875 25.960938 10.300781 25.921875 C 10.304688 25.835938 10.3125 25.746094 10.316406 25.65625 C 10.332031 25.398438 10.347656 25.140625 10.367188 24.882812 C 10.386719 24.5625 10.40625 24.246094 10.429688 23.925781 C 10.429688 23.90625 10.429688 23.886719 10.410156 23.875 C 10.382812 23.847656 10.351562 23.820312 10.316406 23.785156 C 10.304688 23.957031 10.296875 24.117188 10.285156 24.277344 Z M 11.757812 23.625 C 11.785156 23.625 11.796875 23.617188 11.796875 23.585938 C 11.796875 23.460938 11.796875 23.339844 11.796875 23.214844 C 11.792969 23.140625 11.78125 23.128906 11.703125 23.121094 C 11.5 23.105469 11.3125 23.257812 11.328125 23.472656 C 11.332031 23.503906 11.332031 23.539062 11.328125 23.574219 C 11.324219 23.609375 11.335938 23.625 11.375 23.625 C 11.4375 23.621094 11.5 23.625 11.5625 23.625 C 11.625 23.625 11.691406 23.621094 11.757812 23.625 Z M 11.40625 22.917969 C 11.226562 22.941406 11.113281 23.074219 11.113281 23.253906 C 11.113281 23.363281 11.117188 23.472656 11.113281 23.582031 C 11.109375 23.628906 11.136719 23.625 11.167969 23.625 C 11.195312 23.625 11.222656 23.628906 11.222656 23.582031 C 11.222656 23.503906 11.210938 23.421875 11.234375 23.34375 C 11.28125 23.160156 11.445312 23.03125 11.648438 23.019531 C 11.664062 23.019531 11.679688 23.019531 11.710938 23.019531 C 11.617188 22.933594 11.515625 22.902344 11.40625 22.917969 Z M 10.605469 23.824219 C 10.796875 23.816406 10.984375 23.820312 11.175781 23.824219 C 11.21875 23.824219 11.222656 23.804688 11.222656 23.769531 C 11.222656 23.734375 11.214844 23.71875 11.175781 23.71875 C 10.929688 23.722656 10.6875 23.722656 10.445312 23.722656 C 10.433594 23.722656 10.425781 23.722656 10.410156 23.722656 C 10.460938 23.792969 10.519531 23.828125 10.605469 23.824219 Z M 11.96875 23.824219 C 12.007812 23.824219 12.015625 23.808594 12.011719 23.777344 C 12.007812 23.75 12.019531 23.71875 11.96875 23.71875 C 11.769531 23.722656 11.566406 23.722656 11.367188 23.71875 C 11.320312 23.71875 11.328125 23.746094 11.328125 23.773438 C 11.328125 23.804688 11.328125 23.824219 11.367188 23.824219 C 11.46875 23.820312 11.570312 23.820312 11.671875 23.820312 C 11.769531 23.820312 11.871094 23.820312 11.96875 23.824219 Z M 12.515625 23.71875 C 12.398438 23.726562 12.28125 23.722656 12.160156 23.71875 C 12.113281 23.71875 12.121094 23.746094 12.117188 23.773438 C 12.117188 23.808594 12.125 23.824219 12.164062 23.824219 C 12.34375 23.820312 12.527344 23.820312 12.71875 23.820312 C 12.664062 23.746094 12.601562 23.710938 12.515625 23.71875 Z M 11.902344 23.59375 C 11.902344 23.617188 11.914062 23.621094 11.933594 23.625 C 12.011719 23.628906 12.011719 23.628906 12.011719 23.550781 C 12.011719 23.507812 12.011719 23.464844 12.011719 23.421875 C 12.007812 23.34375 11.972656 23.269531 11.902344 23.214844 C 11.902344 23.347656 11.902344 23.472656 11.902344 23.59375 Z M 11.902344 23.59375 " fill-opacity="1" fill-rule="nonzero"/><g clip-path="url(#bcda78d759)"><path fill="#ffde3b" d="M 14.6875 33.753906 C 14.6875 34.1875 14.605469 34.601562 14.441406 35.003906 C 14.277344 35.402344 14.039062 35.757812 13.734375 36.0625 C 13.429688 36.371094 13.078125 36.605469 12.679688 36.773438 C 12.28125 36.9375 11.867188 37.019531 11.4375 37.019531 C 11.003906 37.019531 10.589844 36.9375 10.191406 36.773438 C 9.792969 36.605469 9.441406 36.371094 9.136719 36.0625 C 8.832031 35.757812 8.59375 35.402344 8.429688 35.003906 C 8.265625 34.601562 8.183594 34.1875 8.183594 33.753906 C 8.183594 33.320312 8.265625 32.902344 8.429688 32.5 C 8.59375 32.101562 8.832031 31.746094 9.136719 31.441406 C 9.441406 31.132812 9.792969 30.898438 10.191406 30.730469 C 10.589844 30.566406 11.003906 30.484375 11.4375 30.484375 C 11.867188 30.484375 12.28125 30.566406 12.679688 30.730469 C 13.078125 30.898438 13.429688 31.132812 13.734375 31.441406 C 14.039062 31.746094 14.277344 32.101562 14.441406 32.5 C 14.605469 32.902344 14.6875 33.320312 14.6875 33.753906 Z M 14.6875 33.753906 " fill-opacity="1" fill-rule="nonzero"/><path fill="#564e59" d="M 8.101562 33.753906 C 8.101562 31.902344 9.597656 30.398438 11.4375 30.398438 C 13.273438 30.398438 14.769531 31.902344 14.769531 33.753906 C 14.769531 35.601562 13.273438 37.105469 11.4375 37.105469 C 9.597656 37.105469 8.101562 35.601562 8.101562 33.753906 Z M 8.265625 33.753906 C 8.265625 35.507812 9.6875 36.9375 11.4375 36.9375 C 13.183594 36.9375 14.605469 35.507812 14.605469 33.753906 C 14.605469 31.996094 13.183594 30.566406 11.4375 30.566406 C 9.6875 30.566406 8.265625 31.996094 8.265625 33.753906 Z M 8.265625 33.753906 " fill-opacity="1" fill-rule="nonzero"/></g><path fill="#564e59" d="M 9.984375 35.304688 C 9.984375 35.402344 10.023438 35.445312 10.125 35.445312 C 10.53125 35.441406 10.941406 35.441406 11.351562 35.441406 C 11.75 35.441406 12.152344 35.441406 12.554688 35.441406 C 12.695312 35.441406 12.710938 35.425781 12.710938 35.289062 C 12.710938 34.71875 12.710938 34.144531 12.710938 33.574219 C 12.710938 33.441406 12.691406 33.425781 12.558594 33.425781 C 12.117188 33.425781 11.675781 33.425781 11.234375 33.425781 C 11.21875 33.425781 11.199219 33.425781 11.183594 33.425781 L 10.820312 33.425781 C 10.804688 33.421875 10.785156 33.425781 10.765625 33.425781 C 10.550781 33.425781 10.335938 33.425781 10.121094 33.421875 C 10.023438 33.421875 9.984375 33.460938 9.984375 33.554688 C 9.988281 34.140625 9.988281 34.722656 9.984375 35.304688 Z M 10.992188 35.261719 C 10.996094 34.984375 10.996094 34.707031 10.996094 34.429688 C 10.996094 34.152344 10.996094 33.878906 10.996094 33.601562 C 10.992188 33.53125 11.011719 33.5 11.089844 33.503906 C 11.261719 33.511719 11.433594 33.507812 11.601562 33.503906 C 11.675781 33.503906 11.699219 33.523438 11.699219 33.597656 C 11.695312 34.15625 11.695312 34.714844 11.699219 35.269531 C 11.699219 35.335938 11.679688 35.363281 11.609375 35.359375 C 11.4375 35.355469 11.269531 35.355469 11.097656 35.359375 C 11.019531 35.363281 10.992188 35.339844 10.992188 35.261719 Z M 10.992188 35.261719 " fill-opacity="1" fill-rule="nonzero"/><path fill="#564e59" d="M 9.753906 33.207031 C 9.753906 33.273438 9.792969 33.308594 9.863281 33.308594 C 10.171875 33.308594 10.480469 33.308594 10.789062 33.308594 C 10.792969 33.308594 10.796875 33.308594 10.800781 33.308594 L 11.1875 33.308594 C 11.195312 33.308594 11.199219 33.308594 11.207031 33.308594 L 11.210938 33.308594 C 11.222656 33.308594 11.238281 33.308594 11.253906 33.308594 C 11.761719 33.308594 12.273438 33.308594 12.78125 33.308594 C 12.925781 33.308594 12.9375 33.296875 12.9375 33.144531 C 12.9375 33.027344 12.9375 32.90625 12.9375 32.789062 C 12.9375 32.632812 12.921875 32.621094 12.773438 32.621094 C 12.574219 32.621094 12.371094 32.621094 12.171875 32.621094 C 12.136719 32.621094 12.097656 32.628906 12.054688 32.601562 C 12.105469 32.519531 12.160156 32.433594 12.199219 32.34375 C 12.234375 32.253906 12.257812 32.164062 12.257812 32.070312 C 12.25 31.878906 12.125 31.777344 11.933594 31.824219 C 11.722656 31.875 11.574219 32.011719 11.441406 32.171875 C 11.355469 32.28125 11.355469 32.28125 11.25 32.179688 C 11.105469 32.035156 10.9375 31.929688 10.734375 31.886719 C 10.617188 31.863281 10.5 31.859375 10.414062 31.957031 C 10.324219 32.0625 10.351562 32.179688 10.398438 32.296875 C 10.445312 32.410156 10.523438 32.503906 10.617188 32.613281 C 10.558594 32.617188 10.519531 32.621094 10.480469 32.621094 C 10.28125 32.621094 10.082031 32.621094 9.878906 32.621094 C 9.804688 32.617188 9.753906 32.648438 9.753906 32.726562 C 9.753906 32.886719 9.75 33.046875 9.753906 33.207031 Z M 11.253906 32.53125 C 11.242188 32.65625 11.144531 32.609375 11.078125 32.621094 C 11.023438 32.613281 10.960938 32.636719 10.914062 32.605469 C 10.753906 32.503906 10.621094 32.371094 10.554688 32.1875 C 10.519531 32.085938 10.558594 32.039062 10.671875 32.0625 C 10.914062 32.109375 11.09375 32.253906 11.238281 32.449219 C 11.257812 32.472656 11.257812 32.496094 11.253906 32.53125 Z M 11.921875 32.464844 C 11.847656 32.570312 11.769531 32.65625 11.640625 32.621094 C 11.390625 32.617188 11.390625 32.617188 11.503906 32.410156 C 11.503906 32.410156 11.503906 32.40625 11.507812 32.402344 C 11.613281 32.234375 11.742188 32.085938 11.9375 32.015625 C 12.046875 31.972656 12.082031 32.003906 12.070312 32.121094 C 12.054688 32.25 11.992188 32.359375 11.921875 32.464844 Z M 11.921875 32.464844 " fill-opacity="1" fill-rule="nonzero"/><g clip-path="url(#74e7a84ed5)"><path fill="#ffde3b" d="M 37.554688 65.289062 C 34.621094 65.777344 31.664062 66.0625 28.710938 66.378906 C 25.804688 66.695312 22.894531 66.992188 19.984375 67.296875 C 18.265625 67.476562 17.039062 66.773438 16.148438 65.183594 C 15.640625 64.273438 15.652344 63.3125 15.667969 62.328125 C 15.667969 62.148438 15.671875 61.972656 15.675781 61.792969 C 15.734375 57.65625 15.785156 53.523438 15.839844 49.386719 C 15.890625 45.585938 15.945312 41.789062 15.996094 37.988281 C 16.058594 33.355469 16.117188 28.722656 16.1875 24.085938 C 16.246094 20.320312 16.316406 16.554688 16.386719 12.789062 C 16.394531 12.320312 16.375 11.851562 16.417969 11.386719 C 16.429688 11.28125 16.441406 11.175781 16.457031 11.074219 C 16.792969 8.910156 18.445312 7.523438 20.683594 7.621094 C 22.011719 7.679688 23.324219 7.949219 24.644531 8.128906 C 26.292969 8.355469 27.9375 8.589844 29.589844 8.820312 C 32.246094 9.207031 34.910156 9.546875 37.5625 9.976562 C 38.402344 10.109375 39.15625 10.410156 39.804688 10.984375 C 40.441406 11.550781 40.777344 12.269531 40.96875 13.078125 C 41.078125 13.523438 41.125 13.976562 41.140625 14.425781 C 41.164062 15.007812 41.140625 15.589844 41.132812 16.171875 C 41.089844 20.105469 41.042969 24.042969 40.996094 27.976562 C 40.949219 31.933594 40.902344 35.890625 40.851562 39.847656 C 40.839844 40.914062 40.824219 41.980469 40.8125 43.046875 C 40.78125 45.75 40.746094 48.453125 40.710938 51.15625 C 40.703125 51.699219 40.695312 52.242188 40.6875 52.785156 C 40.683594 53 40.679688 53.214844 40.675781 53.433594 C 40.671875 53.785156 40.667969 54.140625 40.660156 54.492188 C 40.625 56.894531 40.636719 59.292969 40.519531 61.691406 C 40.511719 61.789062 40.507812 61.886719 40.503906 61.980469 C 40.417969 63.574219 39.125 65.027344 37.554688 65.289062 Z M 37.554688 65.289062 " fill-opacity="1" fill-rule="nonzero"/></g><g clip-path="url(#185f25e942)"><path fill="#f0ece3" d="M 41.140625 14.425781 L 40.75 14.363281 L 18.585938 11.421875 L 16.457031 11.074219 C 16.792969 8.910156 18.445312 7.523438 20.683594 7.621094 C 22.011719 7.679688 23.324219 7.949219 24.644531 8.128906 C 26.292969 8.355469 27.9375 8.589844 29.589844 8.820312 C 32.246094 9.207031 34.910156 9.546875 37.5625 9.976562 C 38.402344 10.109375 39.15625 10.410156 39.804688 10.984375 C 40.441406 11.550781 40.777344 12.269531 40.96875 13.078125 C 41.078125 13.523438 41.125 13.976562 41.140625 14.425781 Z M 41.140625 14.425781 " fill-opacity="1" fill-rule="nonzero"/></g><g clip-path="url(#c1ccea19b4)"><path fill="#564e59" d="M 40.503906 61.980469 C 40.507812 61.886719 40.511719 61.789062 40.519531 61.695312 C 40.636719 59.296875 40.625 56.894531 40.660156 54.492188 C 40.667969 54.140625 40.671875 53.785156 40.675781 53.433594 C 40.679688 53.214844 40.683594 53 40.6875 52.785156 C 40.695312 52.242188 40.703125 51.699219 40.710938 51.15625 C 40.746094 48.453125 40.78125 45.75 40.8125 43.046875 C 40.824219 41.980469 40.839844 40.914062 40.851562 39.847656 C 40.902344 35.890625 40.949219 31.933594 40.996094 27.976562 C 41.042969 24.042969 41.089844 20.109375 41.132812 16.171875 C 41.140625 15.589844 41.164062 15.007812 41.140625 14.425781 C 41.125 13.976562 41.078125 13.523438 40.96875 13.078125 C 40.777344 12.269531 40.441406 11.554688 39.804688 10.988281 C 39.15625 10.410156 38.402344 10.109375 37.5625 9.976562 C 34.910156 9.550781 32.246094 9.207031 29.589844 8.820312 C 27.9375 8.589844 26.292969 8.355469 24.644531 8.128906 C 23.324219 7.949219 22.011719 7.679688 20.683594 7.621094 C 18.445312 7.527344 16.792969 8.910156 16.457031 11.074219 C 16.441406 11.175781 16.429688 11.28125 16.417969 11.386719 C 16.375 11.851562 16.394531 12.320312 16.386719 12.789062 C 16.316406 16.554688 16.242188 20.320312 16.1875 24.089844 C 16.117188 28.722656 16.058594 33.355469 15.996094 37.988281 C 15.945312 41.789062 15.890625 45.589844 15.839844 49.386719 C 15.785156 53.523438 15.734375 57.660156 15.675781 61.792969 C 15.671875 61.972656 15.671875 62.148438 15.667969 62.328125 C 15.652344 63.3125 15.640625 64.273438 16.148438 65.183594 C 17.039062 66.777344 18.265625 67.476562 19.984375 67.296875 C 22.894531 66.992188 25.804688 66.695312 28.710938 66.378906 C 31.664062 66.0625 34.621094 65.78125 37.554688 65.289062 C 39.125 65.027344 40.417969 63.574219 40.503906 61.980469 Z M 39.414062 63.492188 C 39.066406 63.910156 38.617188 64.167969 38.078125 64.234375 C 32.273438 64.972656 26.46875 65.722656 20.652344 66.351562 C 19.628906 66.460938 18.867188 65.996094 18.4375 65.058594 C 18.175781 64.488281 18.085938 63.886719 18.074219 63.269531 C 18.046875 61.332031 18.050781 59.394531 18.0625 57.460938 C 18.074219 55.898438 18.089844 54.335938 18.101562 52.773438 C 18.128906 49.328125 18.164062 45.886719 18.203125 42.441406 C 18.242188 38.800781 18.289062 35.15625 18.332031 31.511719 C 18.375 28.148438 18.417969 24.78125 18.457031 21.417969 C 18.5 18.085938 18.539062 14.753906 18.585938 11.421875 C 18.59375 10.691406 18.789062 10.011719 19.257812 9.433594 C 19.738281 8.835938 20.359375 8.554688 21.128906 8.636719 C 21.625 8.6875 22.121094 8.753906 22.617188 8.8125 C 22.617188 8.804688 22.621094 8.792969 22.621094 8.785156 C 23.101562 8.863281 23.582031 8.960938 24.066406 9.015625 C 24.351562 9.050781 24.523438 9.148438 24.558594 9.449219 C 24.574219 9.566406 24.609375 9.6875 24.652344 9.804688 C 24.890625 10.472656 25.328125 10.925781 26.058594 11.015625 C 28.09375 11.265625 30.132812 11.511719 32.167969 11.753906 C 32.675781 11.816406 33.183594 11.867188 33.691406 11.933594 C 34.570312 12.046875 35.046875 11.765625 35.296875 10.921875 C 35.378906 10.644531 35.484375 10.582031 35.757812 10.625 C 36.546875 10.75 37.34375 10.839844 38.132812 10.953125 C 39.621094 11.167969 40.492188 12.050781 40.6875 13.558594 C 40.722656 13.824219 40.742188 14.09375 40.75 14.363281 C 40.777344 15.128906 40.722656 15.898438 40.714844 16.664062 C 40.691406 19.871094 40.652344 23.078125 40.613281 26.289062 C 40.578125 29.609375 40.535156 32.929688 40.496094 36.25 C 40.476562 38.234375 40.453125 40.222656 40.433594 42.210938 C 40.421875 43.386719 40.410156 44.5625 40.398438 45.738281 C 40.378906 47.410156 40.359375 49.082031 40.34375 50.753906 C 40.335938 51.382812 40.332031 52.011719 40.324219 52.640625 C 40.320312 52.882812 40.320312 53.121094 40.316406 53.363281 C 40.3125 53.863281 40.304688 54.363281 40.300781 54.863281 C 40.292969 55.613281 40.285156 56.363281 40.277344 57.113281 C 40.265625 58.46875 40.253906 59.824219 40.242188 61.183594 C 40.230469 62.046875 39.972656 62.824219 39.414062 63.492188 Z M 39.414062 63.492188 " fill-opacity="1" fill-rule="nonzero"/></g><path fill="#eaeaea" d="M 37.820312 17.234375 L 22.316406 15.984375 C 21.796875 15.945312 21.410156 15.488281 21.449219 14.964844 C 21.492188 14.445312 21.945312 14.054688 22.464844 14.097656 L 37.96875 15.347656 C 38.488281 15.386719 38.875 15.84375 38.835938 16.367188 C 38.792969 16.886719 38.339844 17.277344 37.820312 17.234375 Z M 37.820312 17.234375 " fill-opacity="1" fill-rule="nonzero"/><path fill="#564e59" d="M 24.175781 14.234375 L 24.023438 16.125 " fill-opacity="1" fill-rule="nonzero"/><path fill="#564e59" d="M 23.988281 16.121094 L 24.140625 14.230469 L 24.207031 14.238281 L 24.054688 16.125 Z M 23.988281 16.121094 " fill-opacity="1" fill-rule="nonzero"/><path fill="#564e59" d="M 23.238281 14.320312 C 22.984375 14.300781 22.757812 14.492188 22.738281 14.742188 C 22.71875 15.003906 22.90625 15.222656 23.164062 15.246094 C 23.417969 15.265625 23.640625 15.074219 23.660156 14.820312 C 23.679688 14.566406 23.492188 14.339844 23.238281 14.320312 Z M 23.171875 15.167969 C 22.957031 15.15625 22.796875 14.96875 22.8125 14.753906 C 22.828125 14.542969 23.015625 14.378906 23.226562 14.394531 C 23.441406 14.410156 23.601562 14.597656 23.585938 14.8125 C 23.570312 15.023438 23.382812 15.183594 23.171875 15.167969 Z M 23.171875 15.167969 " fill-opacity="1" fill-rule="nonzero"/><path fill="#564e59" d="M 22.882812 15.261719 C 22.78125 15.175781 22.78125 15.171875 22.691406 15.273438 C 22.589844 15.390625 22.488281 15.503906 22.382812 15.621094 C 22.359375 15.644531 22.34375 15.671875 22.339844 15.707031 C 22.335938 15.753906 22.363281 15.800781 22.410156 15.824219 C 22.449219 15.84375 22.507812 15.839844 22.535156 15.804688 C 22.589844 15.730469 22.652344 15.660156 22.699219 15.578125 L 22.800781 15.433594 C 22.835938 15.398438 22.855469 15.351562 22.886719 15.3125 C 22.902344 15.296875 22.90625 15.28125 22.882812 15.261719 Z M 22.882812 15.261719 " fill-opacity="1" fill-rule="nonzero"/><path fill="#564e59" d="M 22.953125 15.207031 C 22.914062 15.183594 22.875 15.152344 22.839844 15.117188 C 22.832031 15.105469 22.820312 15.109375 22.8125 15.117188 C 22.804688 15.128906 22.785156 15.140625 22.796875 15.152344 C 22.835938 15.191406 22.882812 15.226562 22.921875 15.261719 C 22.945312 15.261719 22.949219 15.246094 22.957031 15.234375 C 22.964844 15.226562 22.96875 15.214844 22.953125 15.207031 Z M 22.953125 15.207031 " fill-opacity="1" fill-rule="nonzero"/><path fill="#564e59" d="M 23.078125 14.460938 C 22.957031 14.503906 22.867188 14.625 22.855469 14.757812 C 22.859375 14.785156 22.859375 14.8125 22.863281 14.839844 C 22.867188 14.859375 22.867188 14.890625 22.898438 14.882812 C 22.925781 14.878906 22.921875 14.851562 22.917969 14.832031 C 22.902344 14.730469 22.929688 14.644531 23.003906 14.574219 C 23.03125 14.542969 23.066406 14.527344 23.101562 14.511719 C 23.121094 14.503906 23.144531 14.496094 23.132812 14.46875 C 23.121094 14.445312 23.101562 14.453125 23.078125 14.460938 Z M 23.078125 14.460938 " fill-opacity="1" fill-rule="nonzero"/><path fill="#ffa38a" d="M 46.5 38.726562 C 46.429688 38.851562 46.359375 38.996094 46.414062 39.125 C 46.476562 39.265625 46.65625 39.304688 46.808594 39.300781 C 47.199219 39.285156 47.550781 39.078125 47.886719 38.878906 C 48.019531 38.804688 48.160156 38.710938 48.199219 38.566406 C 48.242188 38.410156 48.15625 38.246094 48.042969 38.132812 C 47.824219 37.914062 47.375 37.734375 47.074219 37.867188 C 46.800781 37.984375 46.644531 38.476562 46.5 38.726562 Z M 46.5 38.726562 " fill-opacity="1" fill-rule="nonzero"/><path fill="#ffa38a" d="M 47.765625 39.199219 C 47.71875 39.292969 47.800781 39.402344 47.902344 39.386719 C 48.160156 39.347656 48.40625 39.246094 48.648438 39.148438 C 48.804688 39.085938 48.988281 38.984375 48.964844 38.800781 C 48.953125 38.699219 48.871094 38.617188 48.773438 38.589844 C 48.347656 38.457031 47.949219 38.824219 47.765625 39.199219 Z M 47.765625 39.199219 " fill-opacity="1" fill-rule="nonzero"/><path fill="#ff9c7c" d="M 20.351562 29.558594 L 42.652344 28.855469 L 52.269531 27.332031 C 52.640625 27.273438 53.019531 27.390625 53.292969 27.648438 L 59.011719 32.960938 C 59.265625 33.195312 59.390625 33.542969 59.339844 33.886719 C 59.230469 34.636719 58.746094 35.910156 56.78125 36.648438 C 56.703125 36.675781 56.699219 36.785156 56.773438 36.820312 C 57.304688 37.066406 58.628906 37.734375 58.660156 38.269531 C 58.691406 38.9375 52.648438 39.464844 52.648438 39.464844 C 52.648438 39.464844 49.046875 39.5 46.949219 38.410156 C 44.851562 37.320312 41.007812 35.496094 36.570312 36.550781 C 32.128906 37.601562 18.324219 40.414062 18.324219 40.414062 L 18.324219 29.488281 Z M 20.351562 29.558594 " fill-opacity="1" fill-rule="nonzero"/><path fill="#a45f42" d="M 54.03125 32.957031 C 54.480469 33.675781 55.199219 34.222656 56.011719 34.460938 C 56.148438 34.5 56.292969 34.53125 56.414062 34.613281 C 56.535156 34.691406 56.628906 34.828125 56.609375 34.972656 C 56.597656 35.070312 56.53125 35.15625 56.464844 35.234375 C 55.910156 35.875 55.070312 36.222656 54.230469 36.234375 C 53.625 36.242188 52.664062 36.210938 52.195312 35.765625 C 52.742188 34.800781 53.421875 33.886719 54.03125 32.957031 Z M 54.03125 32.957031 " fill-opacity="1" fill-rule="nonzero"/><path fill="#b35136" d="M 44.835938 43.558594 L 48.097656 44.910156 L 57.253906 48.714844 L 59.695312 47.21875 L 62.382812 46.691406 C 61.808594 46.59375 48.480469 42.210938 48.480469 42.210938 L 48.097656 43.125 Z M 44.835938 43.558594 " fill-opacity="1" fill-rule="nonzero"/><g clip-path="url(#37c23c7bfd)"><path fill="#ffc158" d="M 66.597656 61.722656 C 66.359375 61.382812 62.382812 46.691406 62.382812 46.691406 L 59.695312 47.21875 L 57.253906 48.714844 L 57.730469 65.332031 Z M 66.597656 61.722656 " fill-opacity="1" fill-rule="nonzero"/></g><path fill="#ffc158" d="M 44.835938 43.558594 L 41.816406 56.855469 L 57.730469 65.332031 L 57.253906 48.714844 Z M 44.835938 43.558594 " fill-opacity="1" fill-rule="nonzero"/><path fill="#ef603f" d="M 44.835938 43.558594 L 48.097656 44.910156 L 48.097656 43.125 Z M 44.835938 43.558594 " fill-opacity="1" fill-rule="nonzero"/><g clip-path="url(#868a138de9)"><path fill="#efac4d" d="M 59.695312 47.21875 L 62.710938 63.304688 L 66.597656 61.722656 L 62.382812 46.691406 Z M 59.695312 47.21875 " fill-opacity="1" fill-rule="nonzero"/></g><path fill="#e2a042" d="M 59.695312 47.21875 C 59.695312 47.21875 57.238281 48.285156 57.253906 48.714844 C 57.265625 49.144531 57.730469 65.335938 57.730469 65.335938 L 62.710938 63.304688 Z M 59.695312 47.21875 " fill-opacity="1" fill-rule="nonzero"/><path fill="#4c4650" d="M 48.125 38.808594 C 48.105469 38.835938 48.085938 38.867188 48.066406 38.894531 C 47.726562 39.378906 47.425781 39.90625 47.175781 40.472656 C 46.789062 41.34375 46.511719 42.308594 46.339844 43.359375 C 46.296875 43.613281 46.261719 43.875 46.234375 44.140625 C 46.179688 44.667969 46.148438 45.214844 46.144531 45.785156 C 46.140625 45.890625 46.140625 46 46.140625 46.109375 C 46.144531 46.195312 46.074219 46.265625 45.992188 46.265625 C 45.90625 46.265625 45.835938 46.199219 45.835938 46.113281 C 45.835938 46.023438 45.835938 45.929688 45.835938 45.839844 C 45.839844 45.210938 45.875 44.601562 45.941406 44.015625 C 45.964844 43.808594 45.992188 43.601562 46.023438 43.402344 C 46.195312 42.289062 46.488281 41.265625 46.898438 40.347656 C 47.078125 39.9375 47.28125 39.550781 47.507812 39.183594 C 47.609375 39.019531 47.714844 38.859375 47.824219 38.703125 C 47.921875 38.738281 48.023438 38.773438 48.125 38.808594 Z M 48.125 38.808594 " fill-opacity="1" fill-rule="nonzero"/><path fill="#4c4650" d="M 59.175781 45.6875 C 59.171875 45.691406 59.171875 45.691406 59.171875 45.695312 C 58.699219 46.8125 57.957031 47.820312 57.042969 48.625 C 56.375 49.214844 55.617188 49.699219 54.804688 50.039062 C 54.710938 50.078125 54.613281 50.117188 54.515625 50.152344 C 54.5 50.15625 54.480469 50.160156 54.464844 50.160156 C 54.402344 50.160156 54.34375 50.121094 54.320312 50.058594 C 54.292969 49.980469 54.332031 49.890625 54.410156 49.863281 C 54.492188 49.832031 54.574219 49.800781 54.65625 49.765625 C 55.402344 49.457031 56.105469 49.023438 56.726562 48.496094 C 57.652344 47.710938 58.402344 46.710938 58.878906 45.601562 C 58.882812 45.589844 58.886719 45.578125 58.894531 45.566406 C 59.71875 43.613281 59.703125 41.289062 58.855469 39.34375 C 58.746094 39.101562 58.628906 38.867188 58.5 38.640625 C 58.488281 38.617188 58.476562 38.597656 58.460938 38.578125 C 58.355469 38.394531 58.238281 38.214844 58.117188 38.046875 C 57.640625 37.382812 57.058594 36.839844 56.417969 36.457031 C 56.128906 36.285156 55.820312 36.144531 55.5 36.03125 C 55.203125 35.929688 54.902344 35.855469 54.589844 35.804688 C 54.558594 35.800781 54.523438 35.796875 54.492188 35.789062 C 54.363281 35.773438 54.332031 35.605469 54.441406 35.539062 C 54.46875 35.519531 54.5 35.503906 54.527344 35.484375 C 54.6875 35.507812 54.851562 35.539062 55.011719 35.574219 C 55.3125 35.644531 55.609375 35.738281 55.890625 35.855469 C 56.128906 35.949219 56.355469 36.0625 56.574219 36.191406 C 56.769531 36.308594 56.960938 36.441406 57.144531 36.582031 C 57.417969 36.800781 57.679688 37.046875 57.921875 37.316406 C 58.152344 37.574219 58.367188 37.851562 58.558594 38.148438 L 58.558594 38.152344 C 58.621094 38.246094 58.679688 38.34375 58.738281 38.441406 C 58.757812 38.476562 58.777344 38.511719 58.796875 38.546875 C 58.921875 38.761719 59.03125 38.988281 59.132812 39.222656 C 60.015625 41.242188 60.03125 43.65625 59.175781 45.6875 Z M 59.175781 45.6875 " fill-opacity="1" fill-rule="nonzero"/><path fill="#4c4650" d="M 50.921875 39.355469 C 51.039062 39.371094 51.152344 39.378906 51.261719 39.390625 C 50.617188 40.394531 50.09375 41.476562 49.703125 42.613281 C 49.675781 42.699219 49.648438 42.785156 49.617188 42.871094 C 49.59375 42.949219 49.511719 43.003906 49.429688 42.980469 C 49.34375 42.957031 49.296875 42.867188 49.324219 42.785156 C 49.351562 42.695312 49.382812 42.605469 49.414062 42.515625 C 49.792969 41.40625 50.300781 40.34375 50.921875 39.355469 Z M 50.921875 39.355469 " fill-opacity="1" fill-rule="nonzero"/><path fill="#4c4650" d="M 61.273438 46.363281 C 61.273438 46.367188 61.269531 46.375 61.269531 46.378906 C 61.253906 46.453125 61.191406 46.503906 61.121094 46.503906 C 61.109375 46.503906 61.097656 46.503906 61.085938 46.5 C 61.003906 46.484375 60.953125 46.398438 60.96875 46.316406 C 60.972656 46.300781 60.976562 46.285156 60.976562 46.269531 C 61.242188 44.894531 61.117188 43.371094 60.613281 41.746094 C 60.148438 40.246094 59.410156 38.816406 58.679688 37.5 C 58.4375 37.066406 58.171875 36.617188 57.851562 36.234375 C 57.5 35.816406 57.078125 35.484375 56.558594 35.355469 C 56.554688 35.355469 56.554688 35.355469 56.550781 35.355469 C 56.074219 35.242188 55.558594 35.316406 55.011719 35.574219 C 54.871094 35.640625 54.730469 35.71875 54.589844 35.804688 C 54.554688 35.800781 54.519531 35.792969 54.484375 35.789062 C 54.359375 35.773438 54.328125 35.609375 54.433594 35.542969 C 54.464844 35.523438 54.496094 35.503906 54.527344 35.484375 C 55.269531 35.042969 55.972656 34.898438 56.621094 35.054688 C 56.671875 35.066406 56.722656 35.082031 56.769531 35.097656 C 57.304688 35.265625 57.738281 35.621094 58.109375 36.070312 C 58.425781 36.449219 58.695312 36.894531 58.945312 37.347656 C 59.683594 38.683594 60.433594 40.125 60.90625 41.65625 C 61.429688 43.34375 61.554688 44.925781 61.273438 46.363281 Z M 61.273438 46.363281 " fill-opacity="1" fill-rule="nonzero"/><path fill="#4c4650" d="M 54.808594 50.085938 C 54.808594 50.199219 54.765625 50.296875 54.6875 50.375 C 54.609375 50.457031 54.511719 50.496094 54.398438 50.496094 C 54.289062 50.496094 54.191406 50.457031 54.113281 50.375 C 54.03125 50.296875 53.992188 50.199219 53.992188 50.085938 C 53.992188 49.972656 54.03125 49.875 54.113281 49.796875 C 54.191406 49.714844 54.289062 49.675781 54.398438 49.675781 C 54.511719 49.675781 54.609375 49.714844 54.6875 49.796875 C 54.765625 49.875 54.808594 49.972656 54.808594 50.085938 Z M 54.808594 50.085938 " fill-opacity="1" fill-rule="nonzero"/><path fill="#4c4650" d="M 46.464844 46.183594 C 46.464844 46.296875 46.425781 46.394531 46.347656 46.472656 C 46.265625 46.554688 46.171875 46.59375 46.058594 46.59375 C 45.945312 46.59375 45.851562 46.554688 45.769531 46.472656 C 45.691406 46.394531 45.652344 46.296875 45.652344 46.183594 C 45.652344 46.070312 45.691406 45.976562 45.769531 45.894531 C 45.851562 45.816406 45.945312 45.773438 46.058594 45.773438 C 46.171875 45.773438 46.265625 45.816406 46.347656 45.894531 C 46.425781 45.976562 46.464844 46.070312 46.464844 46.183594 Z M 46.464844 46.183594 " fill-opacity="1" fill-rule="nonzero"/><path fill="#564e59" d="M 23.570312 61.289062 C 23.5625 61.203125 23.523438 61.167969 23.433594 61.175781 C 23.234375 61.195312 23.03125 61.207031 22.832031 61.222656 C 22.8125 61.222656 22.796875 61.222656 22.777344 61.230469 L 22.441406 61.253906 C 22.425781 61.253906 22.410156 61.253906 22.394531 61.253906 C 21.980469 61.285156 21.566406 61.316406 21.15625 61.347656 C 21.03125 61.359375 21.015625 61.378906 21.027344 61.5 C 21.066406 62.03125 21.105469 62.566406 21.144531 63.101562 C 21.15625 63.230469 21.171875 63.242188 21.300781 63.234375 C 21.675781 63.203125 22.050781 63.175781 22.425781 63.148438 C 22.808594 63.121094 23.191406 63.089844 23.570312 63.0625 C 23.667969 63.054688 23.699219 63.015625 23.691406 62.921875 C 23.648438 62.378906 23.609375 61.835938 23.570312 61.289062 Z M 22.660156 63.054688 C 22.5 63.0625 22.339844 63.074219 22.179688 63.089844 C 22.113281 63.097656 22.09375 63.074219 22.089844 63.011719 C 22.050781 62.492188 22.015625 61.972656 21.972656 61.453125 C 21.96875 61.382812 21.988281 61.359375 22.058594 61.355469 C 22.214844 61.347656 22.375 61.335938 22.535156 61.320312 C 22.605469 61.3125 22.625 61.335938 22.632812 61.402344 C 22.648438 61.660156 22.667969 61.917969 22.6875 62.179688 C 22.707031 62.4375 22.722656 62.695312 22.746094 62.953125 C 22.753906 63.027344 22.730469 63.050781 22.660156 63.054688 Z M 22.660156 63.054688 " fill-opacity="1" fill-rule="nonzero"/><path fill="#564e59" d="M 23.726562 60.5 C 23.71875 60.425781 23.671875 60.402344 23.601562 60.40625 C 23.414062 60.421875 23.226562 60.4375 23.039062 60.449219 C 23.003906 60.453125 22.96875 60.453125 22.914062 60.453125 C 22.992188 60.34375 23.0625 60.253906 23.09375 60.140625 C 23.128906 60.03125 23.148438 59.917969 23.058594 59.828125 C 22.972656 59.738281 22.859375 59.753906 22.753906 59.785156 C 22.566406 59.835938 22.417969 59.949219 22.289062 60.09375 C 22.199219 60.195312 22.203125 60.195312 22.109375 60.101562 C 21.976562 59.957031 21.828125 59.839844 21.628906 59.808594 C 21.449219 59.78125 21.335938 59.882812 21.34375 60.0625 C 21.347656 60.148438 21.378906 60.230469 21.417969 60.3125 C 21.457031 60.394531 21.515625 60.46875 21.570312 60.546875 C 21.53125 60.570312 21.496094 60.566406 21.460938 60.570312 C 21.273438 60.585938 21.085938 60.597656 20.898438 60.609375 C 20.757812 60.621094 20.746094 60.636719 20.757812 60.78125 C 20.765625 60.890625 20.773438 61.003906 20.78125 61.113281 C 20.792969 61.253906 20.804688 61.265625 20.941406 61.253906 C 21.414062 61.21875 21.890625 61.183594 22.367188 61.148438 C 22.378906 61.148438 22.394531 61.144531 22.410156 61.144531 C 22.417969 61.144531 22.421875 61.144531 22.425781 61.144531 L 22.792969 61.117188 C 22.792969 61.117188 22.796875 61.117188 22.800781 61.117188 C 23.089844 61.09375 23.378906 61.070312 23.667969 61.050781 C 23.730469 61.046875 23.765625 61.011719 23.761719 60.949219 C 23.753906 60.796875 23.742188 60.648438 23.726562 60.5 Z M 22.320312 60.34375 C 22.441406 60.148438 22.601562 60.003906 22.824219 59.941406 C 22.929688 59.914062 22.96875 59.953125 22.941406 60.054688 C 22.894531 60.230469 22.777344 60.359375 22.636719 60.464844 C 22.59375 60.5 22.535156 60.484375 22.484375 60.492188 C 22.421875 60.488281 22.335938 60.539062 22.3125 60.421875 C 22.308594 60.390625 22.304688 60.367188 22.320312 60.34375 Z M 21.523438 60.09375 C 21.503906 59.988281 21.535156 59.957031 21.640625 59.984375 C 21.824219 60.039062 21.953125 60.167969 22.066406 60.320312 C 22.070312 60.320312 22.070312 60.324219 22.070312 60.328125 C 22.191406 60.507812 22.191406 60.511719 21.957031 60.53125 C 21.839844 60.574219 21.757812 60.503906 21.683594 60.40625 C 21.613281 60.3125 21.542969 60.214844 21.523438 60.09375 Z M 21.523438 60.09375 " fill-opacity="1" fill-rule="nonzero"/><path fill="#564e59" d="M 29.113281 60.21875 C 28.183594 60.203125 27.253906 60.171875 26.324219 60.175781 C 26.082031 60.175781 25.933594 60.125 25.886719 59.875 C 25.882812 59.835938 25.875 59.789062 25.8125 59.78125 C 25.585938 59.75 25.363281 59.730469 25.132812 59.75 C 25.042969 59.757812 24.988281 59.8125 24.988281 59.90625 C 24.992188 59.992188 25.054688 60.046875 25.136719 60.046875 C 25.292969 60.050781 25.453125 60.054688 25.609375 60.03125 C 25.6875 60.023438 25.714844 60.035156 25.742188 60.101562 C 25.984375 60.679688 26.230469 61.253906 26.476562 61.828125 C 26.480469 61.835938 26.484375 61.84375 26.488281 61.851562 C 26.519531 61.941406 26.613281 62 26.710938 61.992188 L 26.738281 61.988281 C 26.726562 61.996094 26.710938 62.003906 26.703125 62.015625 C 26.585938 62.171875 26.59375 62.359375 26.722656 62.484375 C 26.851562 62.601562 27.050781 62.605469 27.179688 62.484375 C 27.3125 62.359375 27.320312 62.164062 27.199219 62.007812 C 27.183594 61.992188 27.152344 61.980469 27.148438 61.957031 C 27.796875 61.910156 28.441406 61.859375 29.085938 61.8125 C 29.195312 61.804688 29.242188 61.773438 29.242188 61.65625 C 29.246094 61.222656 29.253906 60.792969 29.265625 60.359375 C 29.269531 60.246094 29.214844 60.21875 29.113281 60.21875 Z M 26.960938 62.371094 C 26.878906 62.363281 26.828125 62.324219 26.824219 62.242188 C 26.824219 62.160156 26.871094 62.109375 26.953125 62.109375 C 27.03125 62.105469 27.078125 62.15625 27.082031 62.226562 C 27.089844 62.308594 27.039062 62.355469 26.960938 62.371094 Z M 26.960938 62.371094 " fill-opacity="1" fill-rule="nonzero"/><path fill="#564e59" d="M 28.9375 61.824219 L 28.523438 61.855469 C 28.527344 61.859375 28.527344 61.863281 28.53125 61.867188 C 28.515625 61.878906 28.5 61.886719 28.488281 61.898438 C 28.371094 62.054688 28.378906 62.242188 28.507812 62.367188 C 28.636719 62.484375 28.835938 62.488281 28.964844 62.367188 C 29.097656 62.242188 29.105469 62.046875 28.984375 61.890625 C 28.964844 61.871094 28.925781 61.855469 28.9375 61.824219 Z M 28.746094 62.253906 C 28.667969 62.246094 28.613281 62.207031 28.609375 62.125 C 28.609375 62.042969 28.65625 61.992188 28.738281 61.992188 C 28.816406 61.988281 28.863281 62.039062 28.867188 62.109375 C 28.875 62.191406 28.828125 62.238281 28.746094 62.253906 Z M 28.746094 62.253906 " fill-opacity="1" fill-rule="nonzero"/><path fill="#4c4650" d="M 38.804688 60.566406 C 38.792969 60.410156 38.753906 60.207031 38.714844 60.007812 C 38.632812 59.628906 38.53125 59.261719 38.339844 58.925781 C 38.304688 58.859375 38.265625 58.800781 38.203125 58.753906 C 38.15625 58.714844 38.105469 58.714844 38.078125 58.777344 C 38.039062 58.867188 37.964844 58.929688 37.898438 58.992188 C 37.605469 59.273438 37.265625 59.488281 36.914062 59.6875 C 36.546875 59.898438 36.152344 60.058594 35.785156 60.273438 C 35.695312 60.328125 35.648438 60.394531 35.660156 60.5 C 35.664062 60.574219 35.671875 60.648438 35.703125 60.714844 C 35.769531 60.867188 35.820312 60.902344 35.988281 60.894531 C 36.046875 60.894531 36.101562 60.894531 36.15625 60.886719 C 36.238281 60.871094 36.273438 60.910156 36.296875 60.984375 C 36.394531 61.253906 36.5 61.523438 36.597656 61.796875 C 36.625 61.875 36.671875 61.910156 36.753906 61.890625 C 36.824219 61.875 36.894531 61.855469 36.96875 61.847656 C 37.054688 61.832031 37.066406 61.792969 37.035156 61.714844 C 36.941406 61.464844 36.855469 61.210938 36.753906 60.960938 C 36.71875 60.871094 36.75 60.855469 36.832031 60.859375 C 36.953125 60.863281 37.074219 60.863281 37.195312 60.867188 C 37.210938 60.867188 37.238281 60.871094 37.253906 60.863281 L 37.664062 60.90625 C 37.726562 60.914062 37.796875 60.90625 37.859375 60.914062 C 38.125 60.953125 38.386719 60.996094 38.632812 61.109375 C 38.746094 61.160156 38.785156 61.148438 38.808594 61.023438 C 38.832031 60.886719 38.820312 60.75 38.804688 60.566406 Z M 38.761719 60.941406 C 38.757812 60.96875 38.753906 61.003906 38.714844 61.015625 C 38.679688 61.027344 38.65625 61.003906 38.636719 60.980469 C 38.496094 60.792969 38.425781 60.574219 38.355469 60.355469 C 38.339844 60.300781 38.386719 60.296875 38.417969 60.285156 C 38.480469 60.265625 38.5 60.222656 38.492188 60.15625 C 38.480469 60.019531 38.453125 59.886719 38.402344 59.761719 C 38.375 59.6875 38.339844 59.621094 38.238281 59.640625 C 38.199219 59.648438 38.183594 59.625 38.179688 59.585938 C 38.144531 59.382812 38.113281 59.179688 38.128906 58.972656 C 38.132812 58.925781 38.128906 58.863281 38.1875 58.851562 C 38.242188 58.839844 38.265625 58.898438 38.292969 58.9375 C 38.398438 59.101562 38.460938 59.28125 38.519531 59.464844 C 38.640625 59.855469 38.714844 60.253906 38.765625 60.660156 C 38.773438 60.753906 38.777344 60.847656 38.761719 60.941406 Z M 38.761719 60.941406 " fill-opacity="1" fill-rule="nonzero"/><path fill="#564e59" d="M 34.140625 62.1875 C 34.078125 61.792969 34.015625 61.402344 33.949219 61.007812 C 33.886719 60.628906 33.824219 60.246094 33.761719 59.867188 C 33.738281 59.746094 33.667969 59.664062 33.558594 59.675781 C 33.421875 59.691406 33.402344 59.625 33.40625 59.515625 C 33.410156 59.496094 33.40625 59.472656 33.402344 59.449219 C 33.351562 59.117188 33.175781 58.886719 32.855469 58.792969 C 32.542969 58.703125 32.265625 58.789062 32.050781 59.039062 C 31.890625 59.226562 31.855469 59.449219 31.886719 59.691406 C 31.894531 59.753906 31.894531 59.792969 31.808594 59.804688 C 31.640625 59.820312 31.582031 59.894531 31.582031 60.066406 C 31.570312 60.839844 31.5625 61.617188 31.550781 62.394531 C 31.550781 62.578125 31.644531 62.664062 31.828125 62.652344 C 32.171875 62.625 32.519531 62.601562 32.863281 62.574219 C 33.207031 62.546875 33.554688 62.523438 33.898438 62.496094 C 34.09375 62.480469 34.171875 62.382812 34.140625 62.1875 Z M 33.078125 59.703125 C 32.933594 59.714844 32.792969 59.726562 32.648438 59.738281 C 32.46875 59.75 32.289062 59.765625 32.109375 59.777344 C 32.074219 59.777344 32.035156 59.792969 32.019531 59.734375 C 31.953125 59.484375 32.054688 59.175781 32.261719 59.023438 C 32.660156 58.726562 33.195312 58.960938 33.269531 59.460938 C 33.304688 59.6875 33.304688 59.6875 33.078125 59.703125 Z M 33.078125 59.703125 " fill-opacity="1" fill-rule="nonzero"/></svg>