<svg xmlns="http://www.w3.org/2000/svg" xmlns:xlink="http://www.w3.org/1999/xlink" width="300" zoomAndPan="magnify" viewBox="0 0 224.87999 225" height="300" preserveAspectRatio="xMidYMid meet" version="1.0"><path fill="#caddff" d="M 52.007812 66.199219 C 62.0625 49.042969 81.199219 44.847656 88.417969 43.265625 C 112.980469 37.882812 149.324219 44.351562 166.859375 73.59375 C 182.25 99.257812 173.679688 126.671875 172.4375 130.429688 C 170.355469 136.734375 165.140625 151.851562 150.355469 162.089844 C 127.339844 178.03125 92.257812 174.457031 80.253906 158 C 74.613281 150.269531 79.175781 146.707031 72.609375 133.042969 C 63.816406 114.738281 52.898438 115.179688 47.8125 100.523438 C 42.070312 83.984375 51.078125 67.785156 52.007812 66.199219 " fill-opacity="1" fill-rule="nonzero"/><path fill="#99b9ff" d="M 155.984375 161.921875 C 152.1875 161.390625 149.542969 157.875 150.074219 154.066406 C 150.605469 150.261719 154.113281 147.609375 157.910156 148.140625 C 161.707031 148.675781 164.351562 152.191406 163.820312 155.996094 C 163.289062 159.804688 159.78125 162.457031 155.984375 161.921875 Z M 170.578125 153.96875 C 170.578125 153.804688 170.464844 153.664062 170.304688 153.628906 L 167.992188 153.109375 C 167.855469 153.078125 167.753906 152.96875 167.726562 152.835938 C 167.636719 152.375 167.515625 151.929688 167.371094 151.492188 C 167.324219 151.363281 167.359375 151.21875 167.460938 151.125 L 169.199219 149.511719 C 169.320312 149.398438 169.347656 149.21875 169.265625 149.078125 L 168.226562 147.277344 C 168.144531 147.132812 167.972656 147.070312 167.816406 147.117188 L 165.554688 147.828125 C 165.421875 147.871094 165.28125 147.828125 165.1875 147.722656 C 164.882812 147.378906 164.558594 147.050781 164.210938 146.746094 C 164.109375 146.65625 164.066406 146.511719 164.105469 146.378906 L 164.808594 144.105469 C 164.855469 143.949219 164.789062 143.78125 164.648438 143.699219 L 162.851562 142.660156 C 162.707031 142.578125 162.527344 142.605469 162.417969 142.726562 L 160.8125 144.476562 C 160.71875 144.578125 160.578125 144.613281 160.445312 144.570312 C 160.011719 144.421875 159.566406 144.304688 159.109375 144.214844 C 158.972656 144.1875 158.867188 144.085938 158.835938 143.949219 L 158.3125 141.632812 C 158.273438 141.472656 158.132812 141.359375 157.96875 141.359375 L 155.894531 141.359375 C 155.730469 141.359375 155.589844 141.476562 155.554688 141.636719 L 155.035156 143.957031 C 155.003906 144.089844 154.894531 144.195312 154.761719 144.222656 C 154.304688 144.3125 153.859375 144.433594 153.425781 144.578125 C 153.292969 144.625 153.152344 144.589844 153.058594 144.488281 L 151.449219 142.746094 C 151.335938 142.625 151.15625 142.597656 151.015625 142.679688 L 149.21875 143.722656 C 149.078125 143.804688 149.011719 143.976562 149.0625 144.132812 L 149.769531 146.402344 C 149.8125 146.535156 149.769531 146.675781 149.664062 146.769531 C 149.320312 147.074219 148.996094 147.402344 148.691406 147.75 C 148.597656 147.855469 148.457031 147.894531 148.324219 147.855469 L 146.058594 147.152344 C 145.902344 147.105469 145.734375 147.171875 145.652344 147.3125 L 144.617188 149.117188 C 144.535156 149.257812 144.5625 149.4375 144.683594 149.550781 L 146.425781 151.160156 C 146.527344 151.25 146.5625 151.394531 146.515625 151.527344 C 146.371094 151.960938 146.253906 152.410156 146.164062 152.867188 C 146.136719 153.003906 146.035156 153.113281 145.898438 153.144531 L 143.589844 153.671875 C 143.429688 153.707031 143.316406 153.847656 143.316406 154.011719 L 143.320312 156.09375 C 143.320312 156.257812 143.433594 156.402344 143.59375 156.4375 L 145.90625 156.957031 C 146.039062 156.988281 146.144531 157.09375 146.167969 157.230469 C 146.261719 157.6875 146.378906 158.136719 146.527344 158.570312 C 146.570312 158.703125 146.535156 158.847656 146.433594 158.941406 L 144.695312 160.554688 C 144.578125 160.664062 144.550781 160.84375 144.632812 160.988281 L 145.671875 162.789062 C 145.753906 162.929688 145.921875 162.996094 146.078125 162.945312 L 148.34375 162.238281 C 148.472656 162.195312 148.617188 162.238281 148.707031 162.339844 C 149.015625 162.6875 149.339844 163.011719 149.6875 163.320312 C 149.789062 163.410156 149.832031 163.550781 149.789062 163.683594 L 149.089844 165.957031 C 149.039062 166.113281 149.105469 166.285156 149.25 166.367188 L 151.046875 167.402344 C 151.1875 167.484375 151.367188 167.457031 151.476562 167.335938 L 153.082031 165.589844 C 153.175781 165.488281 153.320312 165.453125 153.449219 165.496094 C 153.882812 165.640625 154.332031 165.761719 154.785156 165.851562 C 154.921875 165.878906 155.03125 165.980469 155.0625 166.113281 L 155.585938 168.433594 C 155.621094 168.59375 155.765625 168.707031 155.929688 168.707031 L 158.003906 168.703125 C 158.167969 168.703125 158.308594 168.589844 158.34375 168.429688 L 158.863281 166.109375 C 158.894531 165.972656 159 165.871094 159.136719 165.84375 C 159.59375 165.75 160.039062 165.632812 160.472656 165.484375 C 160.601562 165.441406 160.746094 165.476562 160.839844 165.578125 L 162.449219 167.320312 C 162.558594 167.441406 162.738281 167.46875 162.878906 167.382812 L 164.675781 166.339844 C 164.816406 166.257812 164.882812 166.089844 164.835938 165.933594 L 164.125 163.660156 C 164.085938 163.53125 164.128906 163.386719 164.230469 163.296875 C 164.574219 162.988281 164.902344 162.660156 165.207031 162.316406 C 165.296875 162.210938 165.441406 162.167969 165.570312 162.210938 L 167.835938 162.914062 C 167.992188 162.960938 168.160156 162.894531 168.242188 162.753906 L 169.277344 160.949219 C 169.359375 160.804688 169.332031 160.625 169.210938 160.515625 L 167.472656 158.90625 C 167.371094 158.8125 167.332031 158.667969 167.378906 158.539062 C 167.523438 158.101562 167.640625 157.65625 167.730469 157.195312 C 167.757812 157.058594 167.859375 156.953125 167.996094 156.921875 L 170.308594 156.394531 C 170.46875 156.359375 170.582031 156.214844 170.582031 156.050781 L 170.578125 153.96875 " fill-opacity="1" fill-rule="nonzero"/><path fill="#99b9ff" d="M 133.457031 167.433594 L 74.066406 167.433594 C 71.507812 167.433594 69.597656 165.359375 69.796875 162.800781 L 78.917969 46.984375 C 79.121094 44.425781 81.359375 42.351562 83.917969 42.351562 L 140.296875 41.691406 C 146.769531 41.691406 147.78125 44.425781 147.578125 46.984375 L 138.457031 162.800781 C 138.253906 165.359375 136.015625 167.433594 133.457031 167.433594 " fill-opacity="1" fill-rule="nonzero"/><path fill="#ffffff" d="M 129.882812 167.433594 L 70.492188 167.433594 C 67.933594 167.433594 66.023438 165.351562 66.222656 162.785156 L 75.328125 46.601562 C 75.527344 44.035156 77.765625 41.953125 80.324219 41.953125 L 139.714844 41.953125 C 142.273438 41.953125 144.1875 44.035156 143.984375 46.601562 L 134.882812 162.785156 C 134.679688 165.351562 132.441406 167.433594 129.882812 167.433594 " fill-opacity="1" fill-rule="nonzero"/><path fill="#caddff" d="M 109.558594 47.863281 C 108.597656 47.863281 107.882812 47.085938 107.957031 46.121094 C 108.03125 45.160156 108.871094 44.382812 109.832031 44.382812 C 110.789062 44.382812 111.503906 45.160156 111.429688 46.121094 C 111.355469 47.085938 110.515625 47.863281 109.558594 47.863281 " fill-opacity="1" fill-rule="nonzero"/><path fill="#caddff" d="M 69.617188 162.945312 L 78.308594 52.007812 C 78.355469 51.417969 78.871094 50.9375 79.460938 50.9375 L 139.171875 50.9375 C 139.761719 50.9375 140.203125 51.417969 140.15625 52.007812 L 131.464844 162.945312 C 131.417969 163.539062 130.902344 164.019531 130.3125 164.019531 L 70.601562 164.019531 C 70.011719 164.019531 69.570312 163.539062 69.617188 162.945312 " fill-opacity="1" fill-rule="nonzero"/><path fill="#99b9ff" d="M 139.625 57.785156 L 140.128906 51.390625 C 140.171875 50.796875 139.734375 50.34375 139.144531 50.34375 L 79.433594 50.34375 C 78.84375 50.34375 78.324219 50.796875 78.277344 51.386719 L 77.773438 57.785156 L 139.625 57.785156 " fill-opacity="1" fill-rule="nonzero"/><path fill="#caddff" d="M 138.210938 51.910156 C 138.230469 52.328125 137.910156 52.664062 137.492188 52.664062 C 137.078125 52.664062 136.722656 52.328125 136.703125 51.910156 C 136.683594 51.492188 137.003906 51.152344 137.421875 51.152344 C 137.835938 51.152344 138.191406 51.492188 138.210938 51.910156 " fill-opacity="1" fill-rule="nonzero"/><path fill="#caddff" d="M 138.101562 54.140625 C 138.121094 54.558594 137.800781 54.898438 137.382812 54.898438 C 136.96875 54.898438 136.613281 54.558594 136.59375 54.140625 C 136.574219 53.726562 136.894531 53.386719 137.3125 53.386719 C 137.730469 53.386719 138.082031 53.726562 138.101562 54.140625 " fill-opacity="1" fill-rule="nonzero"/><path fill="#caddff" d="M 137.957031 56.339844 C 137.976562 56.757812 137.652344 57.09375 137.238281 57.09375 C 136.820312 57.09375 136.464844 56.757812 136.445312 56.339844 C 136.425781 55.921875 136.746094 55.582031 137.164062 55.582031 C 137.582031 55.582031 137.9375 55.921875 137.957031 56.339844 " fill-opacity="1" fill-rule="nonzero"/><path fill="#99b9ff" d="M 134.585938 92.710938 L 78.046875 92.710938 L 80.566406 60.964844 L 137.105469 60.964844 L 134.585938 92.710938 " fill-opacity="1" fill-rule="nonzero"/><path fill="#99b9ff" d="M 131.558594 126.820312 L 75.019531 126.820312 L 77.535156 95.078125 L 134.078125 95.078125 L 131.558594 126.820312 " fill-opacity="1" fill-rule="nonzero"/><path fill="#99b9ff" d="M 129.136719 161.453125 L 72.59375 161.453125 L 75.113281 129.710938 L 131.652344 129.710938 L 129.136719 161.453125 " fill-opacity="1" fill-rule="nonzero"/><path fill="#000000" d="M 129.882812 167.667969 L 81.859375 167.667969 C 81.726562 167.667969 81.621094 167.5625 81.621094 167.433594 C 81.621094 167.300781 81.726562 167.195312 81.859375 167.195312 L 129.882812 167.195312 C 132.320312 167.195312 134.457031 165.210938 134.648438 162.769531 L 139.636719 101.253906 C 139.644531 101.125 139.761719 101.027344 139.886719 101.039062 C 140.019531 101.046875 140.117188 101.164062 140.105469 101.292969 L 135.117188 162.804688 C 134.90625 165.488281 132.558594 167.667969 129.882812 167.667969 " fill-opacity="1" fill-rule="nonzero"/><path fill="#000000" d="M 72.71875 80.109375 C 72.714844 80.109375 72.707031 80.109375 72.703125 80.109375 C 72.570312 80.097656 72.476562 79.984375 72.484375 79.855469 L 75.089844 46.582031 C 75.300781 43.898438 77.648438 41.71875 80.324219 41.71875 L 139.714844 41.71875 C 141.945312 41.71875 143.773438 43.230469 144.164062 45.394531 C 144.183594 45.523438 144.101562 45.644531 143.972656 45.667969 C 143.84375 45.691406 143.722656 45.605469 143.699219 45.476562 C 143.351562 43.542969 141.714844 42.191406 139.714844 42.191406 L 80.324219 42.191406 C 77.890625 42.191406 75.753906 44.175781 75.5625 46.617188 L 72.957031 79.890625 C 72.945312 80.015625 72.84375 80.109375 72.71875 80.109375 " fill-opacity="1" fill-rule="nonzero"/><path fill="#99b9ff" d="M 63.730469 67.445312 C 60.609375 68.300781 57.390625 66.457031 56.535156 63.328125 C 55.679688 60.199219 57.515625 56.96875 60.636719 56.113281 C 63.753906 55.253906 66.976562 57.097656 67.832031 60.226562 C 68.683594 63.355469 66.847656 66.585938 63.730469 67.445312 Z M 73.832031 59.761719 L 73.234375 57.558594 L 70.75 57.671875 C 70.519531 57.1875 70.253906 56.726562 69.953125 56.300781 L 71.265625 54.1875 L 69.648438 52.582031 L 67.554688 53.925781 C 67.121094 53.625 66.660156 53.363281 66.179688 53.140625 L 66.265625 50.648438 L 64.066406 50.070312 L 62.925781 52.277344 C 62.402344 52.238281 61.871094 52.242188 61.339844 52.289062 L 60.171875 50.089844 L 57.976562 50.691406 L 58.089844 53.183594 C 57.609375 53.414062 57.148438 53.679688 56.722656 53.984375 L 54.617188 52.664062 L 53.015625 54.289062 L 54.355469 56.386719 C 54.058594 56.824219 53.792969 57.285156 53.570312 57.765625 L 51.089844 57.679688 L 50.511719 59.886719 L 52.714844 61.035156 C 52.671875 61.558594 52.679688 62.089844 52.726562 62.625 L 50.53125 63.796875 L 51.132812 65.996094 L 53.617188 65.882812 C 53.84375 66.367188 54.113281 66.828125 54.414062 67.257812 L 53.097656 69.367188 L 54.714844 70.972656 L 56.808594 69.628906 C 57.246094 69.929688 57.707031 70.191406 58.183594 70.417969 L 58.097656 72.910156 L 60.300781 73.488281 L 61.441406 71.277344 C 61.964844 71.316406 62.492188 71.3125 63.027344 71.265625 L 64.195312 73.464844 L 66.386719 72.863281 L 66.273438 70.375 C 66.757812 70.140625 67.214844 69.875 67.644531 69.574219 L 69.75 70.890625 L 71.347656 69.269531 L 70.011719 67.167969 C 70.308594 66.730469 70.570312 66.269531 70.792969 65.789062 L 73.277344 65.875 L 73.855469 63.667969 L 71.652344 62.523438 C 71.691406 61.996094 71.6875 61.464844 71.640625 60.933594 L 73.832031 59.761719 " fill-opacity="1" fill-rule="nonzero"/><path fill="#000000" d="M 48.609375 80.652344 C 47.964844 80.652344 47.4375 81.179688 47.4375 81.828125 C 47.4375 82.472656 47.964844 83 48.609375 83 C 49.253906 83 49.777344 82.472656 49.777344 81.828125 C 49.777344 81.179688 49.253906 80.652344 48.609375 80.652344 Z M 48.609375 83.472656 C 47.703125 83.472656 46.964844 82.734375 46.964844 81.828125 C 46.964844 80.917969 47.703125 80.179688 48.609375 80.179688 C 49.511719 80.179688 50.25 80.917969 50.25 81.828125 C 50.25 82.734375 49.511719 83.472656 48.609375 83.472656 " fill-opacity="1" fill-rule="nonzero"/><path fill="#000000" d="M 166.671875 136.617188 C 166.027344 136.617188 165.5 137.140625 165.5 137.789062 C 165.5 138.4375 166.027344 138.960938 166.671875 138.960938 C 167.316406 138.960938 167.839844 138.4375 167.839844 137.789062 C 167.839844 137.140625 167.316406 136.617188 166.671875 136.617188 Z M 166.671875 139.433594 C 165.765625 139.433594 165.027344 138.695312 165.027344 137.789062 C 165.027344 136.882812 165.765625 136.144531 166.671875 136.144531 C 167.574219 136.144531 168.3125 136.882812 168.3125 137.789062 C 168.3125 138.695312 167.574219 139.433594 166.671875 139.433594 " fill-opacity="1" fill-rule="nonzero"/><path fill="#000000" d="M 52.964844 74.863281 C 52.898438 74.863281 52.832031 74.832031 52.785156 74.777344 C 52.699219 74.679688 52.710938 74.527344 52.8125 74.445312 L 53.574219 73.792969 C 53.671875 73.710938 53.820312 73.722656 53.90625 73.820312 C 53.992188 73.917969 53.980469 74.070312 53.878906 74.152344 L 53.117188 74.804688 C 53.074219 74.84375 53.019531 74.863281 52.964844 74.863281 " fill-opacity="1" fill-rule="nonzero"/><path fill="#000000" d="M 50.558594 76.917969 C 50.492188 76.917969 50.425781 76.890625 50.378906 76.835938 C 50.292969 76.734375 50.304688 76.585938 50.40625 76.5 L 51.167969 75.851562 C 51.265625 75.765625 51.414062 75.777344 51.5 75.875 C 51.582031 75.976562 51.570312 76.125 51.472656 76.210938 L 50.710938 76.863281 C 50.667969 76.898438 50.613281 76.917969 50.558594 76.917969 " fill-opacity="1" fill-rule="nonzero"/><path fill="#000000" d="M 51.441406 74.738281 C 51.375 74.738281 51.308594 74.710938 51.261719 74.65625 L 50.613281 73.890625 C 50.527344 73.792969 50.539062 73.644531 50.636719 73.558594 C 50.738281 73.472656 50.886719 73.484375 50.972656 73.585938 L 51.621094 74.347656 C 51.703125 74.449219 51.691406 74.597656 51.59375 74.683594 C 51.550781 74.71875 51.496094 74.738281 51.441406 74.738281 " fill-opacity="1" fill-rule="nonzero"/><path fill="#000000" d="M 53.492188 77.152344 C 53.425781 77.152344 53.359375 77.125 53.3125 77.070312 L 52.664062 76.304688 C 52.578125 76.207031 52.589844 76.058594 52.691406 75.972656 C 52.789062 75.886719 52.9375 75.898438 53.023438 76 L 53.671875 76.761719 C 53.757812 76.863281 53.746094 77.011719 53.644531 77.097656 C 53.601562 77.132812 53.546875 77.152344 53.492188 77.152344 " fill-opacity="1" fill-rule="nonzero"/><path fill="#000000" d="M 172.453125 101.65625 C 172.386719 101.65625 172.320312 101.625 172.273438 101.570312 C 172.1875 101.472656 172.199219 101.324219 172.300781 101.238281 L 173.0625 100.585938 C 173.160156 100.503906 173.308594 100.515625 173.394531 100.613281 C 173.476562 100.714844 173.464844 100.863281 173.367188 100.949219 L 172.605469 101.597656 C 172.5625 101.636719 172.507812 101.65625 172.453125 101.65625 " fill-opacity="1" fill-rule="nonzero"/><path fill="#000000" d="M 170.046875 103.714844 C 169.976562 103.714844 169.914062 103.683594 169.867188 103.628906 C 169.78125 103.53125 169.792969 103.382812 169.890625 103.296875 L 170.652344 102.644531 C 170.753906 102.558594 170.902344 102.570312 170.984375 102.671875 C 171.070312 102.769531 171.058594 102.921875 170.960938 103.003906 L 170.199219 103.65625 C 170.152344 103.695312 170.097656 103.714844 170.046875 103.714844 " fill-opacity="1" fill-rule="nonzero"/><path fill="#000000" d="M 170.929688 101.53125 C 170.863281 101.53125 170.796875 101.503906 170.75 101.449219 L 170.101562 100.6875 C 170.015625 100.585938 170.027344 100.4375 170.125 100.355469 C 170.226562 100.269531 170.375 100.28125 170.457031 100.378906 L 171.109375 101.144531 C 171.191406 101.242188 171.179688 101.390625 171.082031 101.476562 C 171.035156 101.515625 170.984375 101.53125 170.929688 101.53125 " fill-opacity="1" fill-rule="nonzero"/><path fill="#000000" d="M 172.980469 103.945312 C 172.914062 103.945312 172.847656 103.917969 172.800781 103.863281 L 172.152344 103.101562 C 172.066406 103 172.078125 102.851562 172.175781 102.765625 C 172.277344 102.679688 172.425781 102.695312 172.511719 102.792969 L 173.160156 103.558594 C 173.246094 103.65625 173.234375 103.804688 173.132812 103.890625 C 173.089844 103.929688 173.035156 103.945312 172.980469 103.945312 " fill-opacity="1" fill-rule="nonzero"/><path fill="#5479f7" d="M 170.835938 111.832031 L 152.355469 115.863281 C 151.398438 116.074219 150.996094 117.21875 151.617188 117.984375 L 153.421875 120.214844 C 153.878906 120.777344 153.792969 121.605469 153.230469 122.0625 L 139.519531 133.53125 C 138.957031 133.992188 138.128906 133.90625 137.667969 133.34375 L 127.144531 120.390625 C 126.6875 119.828125 125.859375 119.742188 125.292969 120.199219 L 85.582031 153.554688 C 85.019531 154.011719 84.9375 154.84375 85.394531 155.40625 L 89.242188 160.140625 C 89.699219 160.703125 90.527344 160.789062 91.089844 160.328125 L 124.046875 132.503906 C 124.609375 132.042969 125.4375 132.128906 125.894531 132.691406 L 136.414062 145.640625 C 136.875 146.203125 137.703125 146.289062 138.265625 145.828125 L 158.722656 128.855469 C 159.285156 128.394531 160.113281 128.480469 160.574219 129.042969 L 162.523438 131.449219 C 163.140625 132.21875 164.355469 132.050781 164.746094 131.144531 L 172.320312 113.644531 C 172.746094 112.660156 171.878906 111.601562 170.835938 111.832031 " fill-opacity="1" fill-rule="nonzero"/><path fill="#ffffff" d="M 172.933594 95.164062 L 96.074219 95.164062 C 94.460938 95.164062 93.15625 93.855469 93.15625 92.238281 L 93.15625 74.453125 C 93.15625 72.832031 94.460938 71.523438 96.074219 71.523438 L 172.933594 71.523438 C 174.546875 71.523438 175.851562 72.832031 175.851562 74.453125 L 175.851562 92.238281 C 175.851562 93.855469 174.546875 95.164062 172.933594 95.164062 " fill-opacity="1" fill-rule="nonzero"/><path fill="#000000" d="M 99.601562 71.761719 C 96.175781 71.761719 93.390625 74.554688 93.390625 77.984375 L 93.390625 88.703125 C 93.390625 92.132812 96.175781 94.929688 99.601562 94.929688 L 169.40625 94.929688 C 172.828125 94.929688 175.617188 92.132812 175.617188 88.703125 L 175.617188 77.984375 C 175.617188 74.554688 172.828125 71.761719 169.40625 71.761719 Z M 169.40625 95.402344 L 99.601562 95.402344 C 95.917969 95.402344 92.917969 92.394531 92.917969 88.703125 L 92.917969 77.984375 C 92.917969 74.292969 95.917969 71.285156 99.601562 71.285156 L 169.40625 71.285156 C 173.089844 71.285156 176.085938 74.292969 176.085938 77.984375 L 176.085938 88.703125 C 176.085938 92.394531 173.089844 95.402344 169.40625 95.402344 " fill-opacity="1" fill-rule="nonzero"/><path fill="#5479f7" d="M 109.621094 80.886719 L 106.257812 80.394531 L 104.753906 77.339844 C 104.429688 76.683594 103.496094 76.683594 103.171875 77.339844 L 101.667969 80.394531 L 98.304688 80.886719 C 97.582031 80.992188 97.292969 81.882812 97.816406 82.394531 L 100.25 84.769531 L 99.675781 88.128906 C 99.550781 88.851562 100.308594 89.402344 100.953125 89.0625 L 103.960938 87.476562 L 106.972656 89.0625 C 107.617188 89.402344 108.375 88.851562 108.25 88.128906 L 107.675781 84.769531 L 110.109375 82.394531 C 110.632812 81.882812 110.34375 80.992188 109.621094 80.886719 " fill-opacity="1" fill-rule="nonzero"/><path fill="#5479f7" d="M 125.152344 80.886719 L 121.789062 80.394531 L 120.285156 77.339844 C 119.960938 76.683594 119.027344 76.683594 118.703125 77.339844 L 117.199219 80.394531 L 113.835938 80.886719 C 113.113281 80.992188 112.824219 81.882812 113.347656 82.394531 L 115.78125 84.769531 L 115.207031 88.128906 C 115.082031 88.851562 115.839844 89.402344 116.484375 89.0625 L 119.492188 87.476562 L 122.503906 89.0625 C 123.148438 89.402344 123.90625 88.851562 123.78125 88.128906 L 123.207031 84.769531 L 125.640625 82.394531 C 126.164062 81.882812 125.875 80.992188 125.152344 80.886719 " fill-opacity="1" fill-rule="nonzero"/><path fill="#5479f7" d="M 140.683594 80.886719 L 137.320312 80.394531 L 135.8125 77.339844 C 135.492188 76.683594 134.558594 76.683594 134.234375 77.339844 L 132.730469 80.394531 L 129.367188 80.886719 C 128.640625 80.992188 128.355469 81.882812 128.875 82.394531 L 131.3125 84.773438 L 130.734375 88.128906 C 130.613281 88.851562 131.367188 89.402344 132.015625 89.0625 L 135.023438 87.476562 L 138.035156 89.0625 C 138.679688 89.402344 139.433594 88.851562 139.3125 88.128906 L 138.738281 84.773438 L 141.171875 82.394531 C 141.695312 81.882812 141.40625 80.992188 140.683594 80.886719 " fill-opacity="1" fill-rule="nonzero"/><path fill="#5479f7" d="M 156.214844 80.886719 L 152.851562 80.394531 L 151.347656 77.339844 C 151.023438 76.683594 150.089844 76.683594 149.765625 77.339844 L 148.261719 80.394531 L 144.898438 80.886719 C 144.175781 80.992188 143.886719 81.882812 144.40625 82.394531 L 146.84375 84.769531 L 146.265625 88.128906 C 146.144531 88.851562 146.898438 89.402344 147.546875 89.0625 L 150.554688 87.476562 L 153.5625 89.0625 C 154.210938 89.402344 154.96875 88.851562 154.84375 88.128906 L 154.269531 84.769531 L 156.703125 82.394531 C 157.226562 81.882812 156.9375 80.992188 156.214844 80.886719 " fill-opacity="1" fill-rule="nonzero"/><path fill="#99b9ff" d="M 171.746094 80.886719 L 168.378906 80.394531 L 166.875 77.339844 C 166.550781 76.683594 165.617188 76.683594 165.292969 77.339844 L 163.789062 80.394531 L 160.425781 80.886719 C 159.703125 80.992188 159.414062 81.882812 159.9375 82.394531 L 162.371094 84.773438 L 161.796875 88.132812 C 161.675781 88.851562 162.429688 89.402344 163.078125 89.0625 L 166.085938 87.476562 L 169.09375 89.0625 C 169.742188 89.402344 170.496094 88.851562 170.375 88.132812 L 169.796875 84.773438 L 172.234375 82.394531 C 172.757812 81.882812 172.46875 80.992188 171.746094 80.886719 " fill-opacity="1" fill-rule="nonzero"/><path fill="#5479f7" d="M 162.652344 46.753906 L 155.320312 49.132812 L 149.207031 44.421875 C 147.894531 43.410156 145.992188 44.34375 145.992188 46.007812 L 145.976562 53.734375 L 139.621094 58.105469 C 138.253906 59.042969 138.554688 61.148438 140.132812 61.664062 L 147.457031 64.0625 L 149.640625 71.472656 C 150.109375 73.066406 152.199219 73.429688 153.175781 72.085938 L 157.714844 65.84375 L 165.417969 66.054688 C 167.078125 66.097656 168.066406 64.21875 167.09375 62.875 L 162.574219 56.613281 L 165.152344 49.332031 C 165.707031 47.765625 164.230469 46.242188 162.652344 46.753906 " fill-opacity="1" fill-rule="nonzero"/><path fill="#000000" d="M 163.980469 45.550781 L 163.984375 45.550781 Z M 149.328125 43.03125 C 149.0625 43.03125 148.792969 43.09375 148.539062 43.21875 C 147.925781 43.523438 147.558594 44.113281 147.554688 44.800781 L 147.542969 52.53125 C 147.542969 52.605469 147.503906 52.679688 147.441406 52.722656 L 141.085938 57.09375 C 140.519531 57.484375 140.238281 58.121094 140.335938 58.804688 C 140.433594 59.484375 140.882812 60.019531 141.53125 60.234375 L 148.859375 62.632812 C 148.933594 62.65625 148.992188 62.714844 149.015625 62.789062 L 151.195312 70.203125 C 151.390625 70.863281 151.910156 71.324219 152.585938 71.445312 C 153.261719 71.5625 153.90625 71.300781 154.3125 70.742188 L 158.851562 64.5 C 158.898438 64.433594 158.972656 64.398438 159.050781 64.402344 L 166.753906 64.613281 C 167.441406 64.628906 168.042969 64.277344 168.363281 63.667969 C 168.683594 63.058594 168.632812 62.363281 168.230469 61.808594 L 163.710938 55.546875 C 163.664062 55.484375 163.652344 55.402344 163.679688 55.332031 L 166.257812 48.046875 C 166.488281 47.398438 166.339844 46.71875 165.863281 46.226562 C 165.382812 45.730469 164.707031 45.5625 164.054688 45.773438 L 156.71875 48.152344 C 156.648438 48.175781 156.566406 48.160156 156.503906 48.113281 L 150.394531 43.402344 C 150.074219 43.15625 149.703125 43.03125 149.328125 43.03125 Z M 152.894531 71.941406 C 152.765625 71.941406 152.636719 71.933594 152.507812 71.910156 C 151.660156 71.761719 150.988281 71.160156 150.742188 70.335938 L 148.597656 63.042969 L 141.386719 60.683594 C 140.574219 60.414062 139.992188 59.722656 139.867188 58.871094 C 139.746094 58.019531 140.109375 57.191406 140.816406 56.703125 L 147.070312 52.402344 L 147.082031 44.800781 C 147.085938 43.941406 147.5625 43.171875 148.332031 42.792969 C 149.101562 42.414062 150 42.503906 150.679688 43.027344 L 156.691406 47.664062 L 163.910156 45.324219 C 164.726562 45.058594 165.601562 45.277344 166.199219 45.894531 C 166.796875 46.511719 166.992188 47.398438 166.703125 48.207031 L 164.164062 55.371094 L 168.613281 61.53125 C 169.117188 62.226562 169.179688 63.128906 168.78125 63.890625 C 168.378906 64.648438 167.601562 65.109375 166.742188 65.085938 L 159.160156 64.878906 L 154.691406 71.023438 C 154.265625 71.609375 153.601562 71.941406 152.894531 71.941406 " fill-opacity="1" fill-rule="nonzero"/><path fill="#000000" d="M 170.335938 78.472656 C 170.28125 78.472656 170.226562 78.453125 170.179688 78.414062 C 170.082031 78.328125 170.070312 78.179688 170.15625 78.082031 C 173.175781 74.585938 174.535156 70.875 174.1875 67.058594 C 173.558594 60.066406 167.390625 55.023438 167.332031 54.972656 C 167.230469 54.890625 167.210938 54.742188 167.292969 54.640625 C 167.375 54.539062 167.523438 54.523438 167.625 54.601562 C 167.6875 54.65625 174.011719 59.828125 174.660156 67.015625 C 175.015625 70.964844 173.621094 74.792969 170.511719 78.390625 C 170.46875 78.445312 170.402344 78.472656 170.335938 78.472656 " fill-opacity="1" fill-rule="nonzero"/><path fill="#000000" d="M 161.796875 79.589844 C 161.765625 79.589844 161.734375 79.582031 161.703125 79.570312 C 161.582031 79.519531 161.527344 79.378906 161.578125 79.261719 C 164.273438 72.957031 159.808594 67.835938 159.761719 67.785156 C 159.675781 67.6875 159.683594 67.539062 159.78125 67.453125 C 159.878906 67.363281 160.027344 67.375 160.113281 67.472656 C 160.164062 67.523438 164.824219 72.871094 162.011719 79.445312 C 161.972656 79.535156 161.886719 79.589844 161.796875 79.589844 " fill-opacity="1" fill-rule="nonzero"/><path fill="#ffffff" d="M 55.613281 160.335938 L 55.832031 164.417969 L 58.558594 164.878906 L 58.796875 160.0625 L 55.613281 160.335938 " fill-opacity="1" fill-rule="nonzero"/><path fill="#000000" d="M 56.058594 164.214844 L 58.335938 164.601562 L 58.550781 160.320312 L 55.859375 160.550781 Z M 58.558594 165.113281 C 58.542969 165.113281 58.53125 165.113281 58.515625 165.109375 L 55.792969 164.648438 C 55.6875 164.632812 55.605469 164.539062 55.597656 164.429688 L 55.378906 160.347656 C 55.371094 160.21875 55.464844 160.109375 55.59375 160.097656 L 58.777344 159.828125 C 58.847656 159.820312 58.914062 159.84375 58.960938 159.890625 C 59.011719 159.9375 59.039062 160.003906 59.035156 160.074219 L 58.792969 164.890625 C 58.789062 164.957031 58.757812 165.019531 58.703125 165.0625 C 58.664062 165.097656 58.609375 165.113281 58.558594 165.113281 " fill-opacity="1" fill-rule="nonzero"/><path fill="#5479f7" d="M 58.632812 171.96875 C 57.484375 172.070312 55.605469 172.117188 53.421875 171.703125 C 52.707031 171.566406 52.265625 170.84375 52.472656 170.144531 C 53.054688 168.195312 54.078125 164.5 55.597656 162.839844 L 55.90625 163.796875 L 56.441406 162.9375 C 56.511719 162.816406 56.636719 162.742188 56.777344 162.730469 L 57.859375 162.648438 C 58.085938 162.632812 58.285156 162.792969 58.320312 163.015625 L 58.453125 163.839844 L 58.878906 162.789062 L 59.738281 170.648438 C 59.792969 171.316406 59.300781 171.910156 58.632812 171.96875 " fill-opacity="1" fill-rule="nonzero"/><path fill="#000000" d="M 55.503906 163.316406 C 54.265625 164.933594 53.371094 167.941406 52.824219 169.789062 L 52.699219 170.210938 C 52.617188 170.484375 52.65625 170.765625 52.800781 171.007812 C 52.945312 171.25 53.1875 171.417969 53.464844 171.472656 C 55.601562 171.878906 57.441406 171.839844 58.613281 171.734375 C 59.148438 171.683594 59.546875 171.207031 59.503906 170.667969 L 58.746094 163.742188 L 58.671875 163.929688 C 58.628906 164.027344 58.527344 164.085938 58.425781 164.074219 C 58.320312 164.0625 58.234375 163.980469 58.21875 163.878906 L 58.089844 163.054688 C 58.074219 162.949219 57.980469 162.878906 57.875 162.886719 L 56.792969 162.96875 C 56.730469 162.972656 56.675781 163.007812 56.640625 163.0625 L 56.105469 163.921875 C 56.054688 164 55.96875 164.042969 55.875 164.03125 C 55.785156 164.019531 55.707031 163.957031 55.679688 163.867188 Z M 58.632812 171.96875 Z M 57.003906 172.277344 C 55.972656 172.277344 54.734375 172.195312 53.378906 171.9375 C 52.96875 171.859375 52.613281 171.609375 52.398438 171.253906 C 52.183594 170.902344 52.128906 170.472656 52.246094 170.074219 L 52.375 169.65625 C 52.972656 167.640625 53.972656 164.265625 55.421875 162.679688 C 55.480469 162.617188 55.566406 162.589844 55.648438 162.605469 C 55.730469 162.625 55.796875 162.683594 55.820312 162.765625 L 55.972656 163.238281 L 56.238281 162.808594 C 56.351562 162.628906 56.546875 162.511719 56.757812 162.496094 L 57.839844 162.414062 C 58.179688 162.386719 58.492188 162.628906 58.554688 162.96875 L 58.664062 162.699219 C 58.703125 162.597656 58.808594 162.539062 58.914062 162.554688 C 59.019531 162.570312 59.101562 162.65625 59.113281 162.761719 L 59.972656 170.621094 C 60.039062 171.425781 59.445312 172.132812 58.652344 172.203125 C 58.199219 172.246094 57.640625 172.277344 57.003906 172.277344 " fill-opacity="1" fill-rule="nonzero"/><path fill="#000000" d="M 56.15625 170.933594 C 55.25 170.933594 54.214844 170.839844 53.191406 170.550781 C 53.066406 170.515625 52.992188 170.386719 53.027344 170.261719 C 53.0625 170.132812 53.195312 170.0625 53.320312 170.097656 C 55.949219 170.839844 58.78125 170.199219 58.8125 170.191406 C 58.9375 170.160156 59.0625 170.242188 59.09375 170.367188 C 59.125 170.496094 59.042969 170.621094 58.917969 170.652344 C 58.839844 170.667969 57.6875 170.933594 56.15625 170.933594 " fill-opacity="1" fill-rule="nonzero"/><path fill="#000000" d="M 57.585938 167.90625 C 57.585938 167.90625 57.582031 167.90625 57.582031 167.90625 L 55.011719 167.863281 C 54.878906 167.859375 54.777344 167.753906 54.777344 167.621094 C 54.78125 167.492188 54.886719 167.390625 55.015625 167.390625 C 55.015625 167.390625 55.015625 167.390625 55.019531 167.390625 L 57.589844 167.433594 C 57.71875 167.4375 57.824219 167.546875 57.820312 167.675781 C 57.820312 167.804688 57.714844 167.90625 57.585938 167.90625 " fill-opacity="1" fill-rule="nonzero"/><path fill="#ffffff" d="M 68.550781 158.820312 L 68.664062 164.769531 L 71.960938 164.933594 L 72.410156 159.015625 L 68.550781 158.820312 " fill-opacity="1" fill-rule="nonzero"/><path fill="#000000" d="M 68.894531 164.542969 L 71.742188 164.6875 L 72.15625 159.238281 L 68.792969 159.070312 Z M 71.960938 165.171875 C 71.957031 165.171875 71.953125 165.171875 71.949219 165.171875 L 68.652344 165.003906 C 68.527344 164.996094 68.429688 164.894531 68.425781 164.773438 L 68.316406 158.824219 C 68.3125 158.757812 68.339844 158.695312 68.386719 158.648438 C 68.433594 158.605469 68.496094 158.582031 68.5625 158.585938 L 72.421875 158.78125 C 72.484375 158.78125 72.546875 158.8125 72.585938 158.859375 C 72.628906 158.90625 72.652344 158.96875 72.644531 159.035156 L 72.195312 164.953125 C 72.183594 165.078125 72.082031 165.171875 71.960938 165.171875 " fill-opacity="1" fill-rule="nonzero"/><path fill="#5479f7" d="M 67.632812 168.070312 C 67.597656 168.628906 67.953125 169.140625 68.492188 169.296875 C 70.367188 169.835938 74.585938 171.035156 75.792969 171.277344 C 77.359375 171.59375 79.328125 171.207031 80.210938 170.320312 C 81.089844 169.4375 78.496094 167.089844 77.253906 166.21875 C 75.40625 164.925781 73.695312 162.46875 72.933594 162.324219 C 72.167969 162.179688 70.625 164.339844 70.625 164.339844 L 68.328125 163.234375 C 68.328125 163.234375 67.820312 165.230469 67.632812 168.070312 " fill-opacity="1" fill-rule="nonzero"/><path fill="#000000" d="M 67.632812 168.070312 L 67.636719 168.070312 Z M 68.492188 163.578125 C 68.347656 164.21875 68.011719 165.910156 67.871094 168.085938 C 67.839844 168.53125 68.128906 168.945312 68.558594 169.070312 C 70.34375 169.582031 74.632812 170.800781 75.839844 171.046875 C 77.363281 171.351562 79.246094 170.953125 80.042969 170.152344 C 80.128906 170.066406 80.164062 169.960938 80.148438 169.8125 C 80.070312 168.921875 78.339844 167.265625 77.121094 166.414062 C 76.179688 165.753906 75.296875 164.828125 74.523438 164.011719 C 73.871094 163.324219 73.195312 162.613281 72.886719 162.558594 C 72.511719 162.484375 71.515625 163.5 70.816406 164.480469 C 70.75 164.574219 70.625 164.605469 70.519531 164.554688 Z M 76.925781 171.621094 C 76.527344 171.621094 76.128906 171.585938 75.746094 171.507812 C 74.523438 171.261719 70.222656 170.039062 68.429688 169.523438 C 67.789062 169.339844 67.355469 168.722656 67.398438 168.054688 C 67.582031 165.222656 68.09375 163.195312 68.101562 163.175781 C 68.117188 163.109375 68.164062 163.050781 68.230469 163.023438 C 68.292969 162.992188 68.367188 162.992188 68.429688 163.023438 L 70.546875 164.042969 C 70.984375 163.457031 72.199219 161.945312 72.976562 162.09375 C 73.433594 162.179688 74.03125 162.8125 74.863281 163.683594 C 75.625 164.484375 76.488281 165.394531 77.390625 166.023438 C 78.398438 166.730469 80.515625 168.574219 80.621094 169.773438 C 80.644531 170.054688 80.5625 170.304688 80.375 170.488281 C 79.671875 171.195312 78.296875 171.621094 76.925781 171.621094 " fill-opacity="1" fill-rule="nonzero"/><path fill="#000000" d="M 77.070312 170.535156 C 73.578125 170.535156 68.671875 168.253906 68.40625 168.128906 C 68.289062 168.074219 68.234375 167.933594 68.292969 167.816406 C 68.347656 167.695312 68.488281 167.644531 68.605469 167.699219 C 68.6875 167.738281 76.816406 171.523438 79.347656 169.453125 C 79.449219 169.371094 79.597656 169.386719 79.679688 169.488281 C 79.761719 169.589844 79.746094 169.738281 79.644531 169.820312 C 79.015625 170.335938 78.105469 170.535156 77.070312 170.535156 " fill-opacity="1" fill-rule="nonzero"/><path fill="#000000" d="M 73.164062 166.75 C 73.097656 166.75 73.03125 166.722656 72.984375 166.664062 C 72.902344 166.5625 72.914062 166.414062 73.015625 166.332031 L 74.769531 164.902344 C 74.871094 164.816406 75.019531 164.832031 75.101562 164.933594 C 75.183594 165.035156 75.167969 165.183594 75.066406 165.265625 L 73.316406 166.699219 C 73.269531 166.734375 73.21875 166.75 73.164062 166.75 " fill-opacity="1" fill-rule="nonzero"/><path fill="#000000" d="M 57.8125 119.238281 C 57.8125 119.238281 54.777344 137.964844 53.921875 144.332031 C 53.066406 150.703125 54.332031 161.074219 54.332031 161.074219 L 59.433594 161.0625 C 59.433594 161.0625 60.410156 148.578125 60.960938 145.128906 C 60.960938 145.128906 63.347656 140.53125 64.195312 136.367188 C 65.042969 132.199219 67.546875 125.679688 67.546875 125.679688 C 67.546875 125.679688 67.644531 158.859375 67.683594 161.464844 C 67.683594 161.464844 71.664062 161.84375 73.140625 161.015625 C 73.140625 161.015625 76.28125 149.078125 76.246094 142.496094 C 76.214844 135.914062 76.140625 119.441406 76.140625 119.441406 L 57.8125 119.238281 " fill-opacity="1" fill-rule="nonzero"/><path fill="#ffffff" d="M 60.027344 145.316406 C 60.023438 145.316406 60.019531 145.316406 60.015625 145.316406 L 58.460938 145.234375 C 58.328125 145.230469 58.230469 145.117188 58.234375 144.988281 C 58.242188 144.859375 58.351562 144.757812 58.484375 144.765625 L 60.039062 144.84375 C 60.167969 144.847656 60.269531 144.960938 60.261719 145.089844 C 60.253906 145.21875 60.152344 145.316406 60.027344 145.316406 " fill-opacity="1" fill-rule="nonzero"/><path fill="#ffffff" d="M 70.621094 155.5 C 70.613281 155.5 70.609375 155.5 70.601562 155.496094 C 70.472656 155.488281 70.375 155.375 70.382812 155.246094 C 70.59375 152.167969 74.230469 146.835938 74.386719 146.609375 C 74.460938 146.503906 74.605469 146.476562 74.714844 146.550781 C 74.820312 146.625 74.847656 146.773438 74.773438 146.878906 C 74.738281 146.933594 71.058594 152.332031 70.855469 155.277344 C 70.847656 155.402344 70.742188 155.5 70.621094 155.5 " fill-opacity="1" fill-rule="nonzero"/><path fill="#ffffff" d="M 71.664062 91.828125 C 77.5 102.785156 76.945312 107.613281 85.164062 96.3125 L 86.050781 100.777344 C 86.050781 100.777344 70.367188 124.792969 73.148438 101.484375 L 71.664062 91.828125 " fill-opacity="1" fill-rule="nonzero"/><path fill="#000000" d="M 72.113281 93.199219 L 73.378906 101.449219 C 73.382812 101.472656 73.382812 101.492188 73.382812 101.511719 C 72.496094 108.933594 73.578125 110.953125 74.636719 111.339844 C 77.417969 112.355469 83.582031 104.101562 85.800781 100.726562 L 85.039062 96.886719 C 81.628906 101.527344 79.867188 103.136719 78.375 103 C 76.773438 102.851562 75.726562 100.664062 73.996094 97.03125 C 73.441406 95.875 72.832031 94.597656 72.113281 93.199219 Z M 75.121094 111.894531 C 74.894531 111.894531 74.679688 111.859375 74.476562 111.785156 C 72.675781 111.128906 72.164062 107.761719 72.910156 101.488281 L 71.433594 91.863281 C 71.414062 91.75 71.480469 91.640625 71.589844 91.605469 C 71.699219 91.566406 71.820312 91.617188 71.875 91.71875 C 72.890625 93.625 73.703125 95.328125 74.417969 96.828125 C 76.023438 100.1875 77.085938 102.40625 78.417969 102.53125 C 79.722656 102.648438 81.558594 100.867188 84.972656 96.171875 C 85.027344 96.097656 85.125 96.0625 85.214844 96.082031 C 85.304688 96.101562 85.378906 96.175781 85.394531 96.265625 L 86.28125 100.730469 C 86.292969 100.789062 86.28125 100.855469 86.246094 100.90625 C 85.9375 101.378906 79.023438 111.894531 75.121094 111.894531 " fill-opacity="1" fill-rule="nonzero"/><path fill="#5479f7" d="M 57.898438 120.03125 L 76.34375 120.863281 L 74.628906 101.113281 L 77.59375 101.113281 L 75.53125 95.46875 C 74.421875 92.433594 71.667969 90.3125 68.460938 90.027344 C 65.765625 89.789062 62.167969 89.609375 57.929688 89.722656 C 55.621094 89.789062 53.429688 90.746094 51.8125 92.398438 C 49.5625 94.691406 46.503906 98.199219 45.667969 101.042969 L 55.742188 104.855469 L 56.703125 103.4375 C 56.703125 103.4375 58.316406 112.234375 57.898438 120.03125 " fill-opacity="1" fill-rule="nonzero"/><path fill="#000000" d="M 56.703125 103.671875 C 56.667969 103.671875 56.632812 103.667969 56.601562 103.652344 C 56.484375 103.59375 56.433594 103.453125 56.488281 103.335938 L 58.261719 99.527344 C 58.316406 99.40625 58.457031 99.355469 58.578125 99.410156 C 58.695312 99.464844 58.746094 99.605469 58.691406 99.726562 L 56.914062 103.535156 C 56.875 103.621094 56.789062 103.671875 56.703125 103.671875 " fill-opacity="1" fill-rule="nonzero"/><path fill="#000000" d="M 69.429688 80.886719 C 69.421875 80.886719 69.414062 80.886719 69.410156 80.890625 C 69.390625 80.898438 69.351562 80.976562 69.355469 81.136719 C 69.363281 81.335938 69.4375 81.585938 69.558594 81.824219 C 69.679688 82.0625 69.835938 82.269531 69.996094 82.390625 C 70.121094 82.492188 70.203125 82.503906 70.222656 82.496094 C 70.289062 82.460938 70.34375 82.085938 70.074219 81.5625 C 69.828125 81.074219 69.527344 80.886719 69.429688 80.886719 Z M 70.207031 82.972656 C 70.074219 82.972656 69.902344 82.921875 69.703125 82.765625 C 69.492188 82.597656 69.289062 82.339844 69.136719 82.039062 C 68.984375 81.738281 68.894531 81.425781 68.886719 81.15625 C 68.871094 80.703125 69.074219 80.53125 69.195312 80.46875 C 69.589844 80.269531 70.136719 80.636719 70.496094 81.347656 C 70.855469 82.054688 70.832031 82.714844 70.4375 82.917969 C 70.382812 82.945312 70.304688 82.972656 70.207031 82.972656 " fill-opacity="1" fill-rule="nonzero"/><path fill="#ffffff" d="M 66.117188 91.296875 C 65.390625 91.296875 64.695312 91.179688 64.039062 90.96875 C 63.445312 90.773438 62.890625 90.503906 62.382812 90.160156 C 64.589844 89.382812 63.8125 86.015625 63.8125 86.015625 C 62.144531 82.335938 63.441406 79.988281 65.410156 79.5 C 68.207031 78.808594 68.5625 80.4375 68.5625 80.4375 C 68.773438 80.875 69.269531 81.894531 69.460938 82.011719 C 69.695312 82.15625 70.253906 82.300781 70.347656 82.417969 C 70.4375 82.535156 70.386719 82.914062 70.035156 83.242188 C 70.035156 83.242188 71.050781 85.371094 70.710938 86.011719 C 70.371094 86.652344 67.960938 87.1875 67.960938 87.1875 C 67.960938 87.1875 67.394531 89.777344 68.960938 90.664062 C 68.367188 90.945312 67.722656 91.140625 67.046875 91.230469 C 66.742188 91.273438 66.433594 91.296875 66.117188 91.296875 " fill-opacity="1" fill-rule="nonzero"/><path fill="#000000" d="M 70.175781 82.578125 Z M 62.878906 90.195312 C 63.265625 90.417969 63.679688 90.601562 64.113281 90.742188 C 64.761719 90.953125 65.4375 91.0625 66.117188 91.0625 C 66.410156 91.0625 66.710938 91.039062 67.015625 91 C 67.515625 90.929688 68.007812 90.800781 68.484375 90.613281 C 67.230469 89.503906 67.707031 87.242188 67.730469 87.140625 C 67.75 87.046875 67.820312 86.976562 67.910156 86.957031 C 68.867188 86.746094 70.304688 86.277344 70.503906 85.902344 C 70.699219 85.53125 70.222656 84.183594 69.820312 83.34375 C 69.777344 83.25 69.796875 83.136719 69.875 83.066406 C 70.101562 82.855469 70.15625 82.644531 70.152344 82.5625 C 70.082031 82.523438 69.925781 82.464844 69.820312 82.425781 C 69.644531 82.359375 69.460938 82.289062 69.335938 82.214844 C 69.152344 82.101562 68.894531 81.664062 68.351562 80.542969 C 68.34375 80.523438 68.335938 80.507812 68.332031 80.488281 C 68.328125 80.472656 68.234375 80.101562 67.800781 79.835938 C 67.28125 79.519531 66.472656 79.484375 65.46875 79.730469 C 64.65625 79.933594 64.003906 80.464844 63.632812 81.230469 C 63.058594 82.421875 63.199219 84.089844 64.027344 85.917969 C 64.035156 85.933594 64.039062 85.949219 64.042969 85.964844 C 64.074219 86.101562 64.746094 89.121094 62.878906 90.195312 Z M 66.117188 91.535156 C 65.390625 91.535156 64.664062 91.417969 63.964844 91.191406 C 63.351562 90.992188 62.777344 90.710938 62.25 90.359375 C 62.175781 90.308594 62.136719 90.222656 62.148438 90.132812 C 62.160156 90.042969 62.21875 89.96875 62.304688 89.9375 C 64.203125 89.269531 63.644531 86.371094 63.585938 86.089844 C 62.707031 84.140625 62.574219 82.339844 63.210938 81.023438 C 63.644531 80.128906 64.402344 79.507812 65.355469 79.273438 C 66.511719 78.984375 67.421875 79.042969 68.0625 79.441406 C 68.585938 79.769531 68.75 80.230469 68.785156 80.355469 C 69.316406 81.449219 69.515625 81.753906 69.589844 81.816406 C 69.667969 81.863281 69.835938 81.925781 69.984375 81.980469 C 70.277344 82.09375 70.445312 82.160156 70.53125 82.273438 C 70.695312 82.480469 70.648438 82.90625 70.316406 83.289062 C 70.582031 83.871094 71.257812 85.484375 70.921875 86.125 C 70.582031 86.761719 68.800781 87.234375 68.164062 87.386719 C 68.078125 87.917969 67.878906 89.78125 69.078125 90.460938 C 69.152344 90.503906 69.199219 90.585938 69.195312 90.675781 C 69.195312 90.761719 69.140625 90.839844 69.0625 90.878906 C 68.429688 91.175781 67.761719 91.371094 67.078125 91.46875 C 66.753906 91.511719 66.429688 91.535156 66.117188 91.535156 " fill-opacity="1" fill-rule="nonzero"/><path fill="#000000" d="M 63.84375 78.496094 C 64.546875 78.292969 65.371094 78.332031 65.707031 78.183594 C 66.253906 77.945312 66.183594 77.296875 66.96875 77.164062 C 67.660156 77.046875 68.320312 77.121094 68.71875 77.625 C 68.785156 77.710938 68.84375 77.804688 68.894531 77.914062 C 69.574219 79.378906 68.878906 80.171875 68.5625 80.4375 C 68.5625 80.4375 66.527344 81.644531 66.1875 81.96875 C 65.867188 82.273438 65.519531 82.964844 65.824219 83.890625 C 65.859375 84.007812 65.820312 84.136719 65.714844 84.207031 L 65.710938 84.210938 C 65.589844 84.292969 65.421875 84.273438 65.328125 84.160156 C 65.03125 83.800781 64.390625 83.113281 63.980469 83.320312 C 63.472656 83.574219 63.429688 84.953125 64.515625 85.089844 C 64.710938 85.117188 64.824219 85.324219 64.746094 85.507812 C 64.621094 85.792969 64.359375 86.105469 63.8125 86.015625 C 63.8125 86.015625 61.386719 84.582031 60.933594 82.453125 C 60.476562 80.328125 62.910156 78.765625 63.84375 78.496094 " fill-opacity="1" fill-rule="nonzero"/><path fill="#000000" d="M 67.972656 81.453125 C 67.933594 81.453125 67.902344 81.460938 67.871094 81.476562 C 67.78125 81.519531 67.722656 81.640625 67.707031 81.804688 C 67.691406 82.011719 67.75 82.257812 67.863281 82.488281 C 68.097656 82.945312 68.488281 83.179688 68.683594 83.078125 C 68.878906 82.980469 68.921875 82.527344 68.691406 82.066406 C 68.492188 81.679688 68.183594 81.453125 67.972656 81.453125 Z M 68.582031 83.574219 C 68.171875 83.574219 67.71875 83.242188 67.445312 82.703125 C 67.289062 82.394531 67.214844 82.058594 67.238281 81.765625 C 67.265625 81.433594 67.417969 81.175781 67.65625 81.054688 C 68.125 80.816406 68.761719 81.167969 69.109375 81.851562 C 69.457031 82.539062 69.367188 83.261719 68.898438 83.5 C 68.800781 83.550781 68.691406 83.574219 68.582031 83.574219 " fill-opacity="1" fill-rule="nonzero"/><path fill="#000000" d="M 68.878906 82.109375 C 68.847656 82.109375 68.8125 82.101562 68.78125 82.089844 C 68.664062 82.03125 68.609375 81.894531 68.664062 81.777344 C 68.730469 81.628906 68.925781 81.382812 69.226562 81.394531 C 69.355469 81.402344 69.457031 81.511719 69.449219 81.640625 C 69.445312 81.773438 69.335938 81.875 69.203125 81.867188 C 69.160156 81.863281 69.105469 81.945312 69.09375 81.972656 C 69.054688 82.058594 68.96875 82.109375 68.878906 82.109375 " fill-opacity="1" fill-rule="nonzero"/><path fill="#000000" d="M 65.128906 83.441406 C 65.039062 83.441406 64.953125 83.390625 64.914062 83.304688 C 64.859375 83.1875 64.910156 83.046875 65.027344 82.992188 L 67.378906 81.90625 C 67.496094 81.851562 67.636719 81.902344 67.691406 82.019531 C 67.746094 82.140625 67.695312 82.28125 67.578125 82.335938 L 65.226562 83.421875 C 65.195312 83.433594 65.160156 83.441406 65.128906 83.441406 " fill-opacity="1" fill-rule="nonzero"/><path fill="#000000" d="M 87.738281 77.140625 C 89.964844 68.042969 99.054688 62.460938 108.042969 64.667969 C 117.03125 66.875 122.515625 76.039062 120.292969 85.136719 C 118.070312 94.234375 108.980469 99.820312 99.988281 97.613281 C 91 95.402344 85.515625 86.238281 87.738281 77.140625 Z M 85.269531 76.535156 C 82.707031 87.011719 89.023438 97.566406 99.378906 100.113281 C 109.730469 102.65625 120.203125 96.222656 122.761719 85.746094 C 125.324219 75.265625 119.007812 64.710938 108.652344 62.167969 C 98.300781 59.625 87.828125 66.054688 85.269531 76.535156 " fill-opacity="1" fill-rule="nonzero"/><path fill="#000000" d="M 50.058594 124.824219 L 50.894531 125.878906 C 51.75 126.921875 53.519531 125.820312 55.9375 123.777344 L 90.421875 94.65625 L 88.160156 90.304688 L 52.839844 119.996094 C 50.421875 122.039062 49.203125 123.777344 50.058594 124.824219 " fill-opacity="1" fill-rule="nonzero"/><path fill="#ffffff" d="M 47.519531 101.523438 L 55.003906 104.292969 C 55.003906 104.292969 53.742188 116.015625 61.824219 120.046875 C 61.824219 120.046875 66.203125 119.503906 67.722656 122.113281 C 67.722656 122.113281 64.65625 121.972656 62.089844 122.683594 C 59.519531 123.390625 44.230469 118.96875 47.519531 101.523438 " fill-opacity="1" fill-rule="nonzero"/><path fill="#000000" d="M 61.4375 122.988281 C 59.464844 122.988281 55.304688 121.738281 51.988281 118.675781 C 48.902344 115.828125 45.582031 110.527344 47.289062 101.480469 C 47.3125 101.351562 47.4375 101.269531 47.566406 101.292969 C 47.691406 101.316406 47.777344 101.441406 47.753906 101.570312 C 46.085938 110.402344 49.308594 115.558594 52.308594 118.328125 C 56.238281 121.957031 60.910156 122.761719 62.023438 122.453125 C 64.035156 121.898438 66.308594 121.855469 67.265625 121.867188 C 65.660156 119.835938 61.890625 120.277344 61.851562 120.28125 C 61.808594 120.289062 61.761719 120.28125 61.71875 120.257812 C 58.347656 118.578125 56.078125 115.347656 55.152344 110.917969 C 54.460938 107.59375 54.769531 104.722656 54.773438 104.691406 C 54.789062 104.5625 54.90625 104.46875 55.035156 104.484375 C 55.164062 104.5 55.257812 104.617188 55.242188 104.746094 C 55.238281 104.773438 54.9375 107.582031 55.617188 110.835938 C 56.238281 113.800781 57.828125 117.757812 61.867188 119.804688 C 62.472656 119.742188 66.4375 119.4375 67.925781 121.992188 C 67.96875 122.070312 67.96875 122.160156 67.921875 122.234375 C 67.878906 122.308594 67.796875 122.351562 67.710938 122.347656 C 67.679688 122.347656 64.652344 122.21875 62.152344 122.910156 C 61.964844 122.960938 61.726562 122.988281 61.4375 122.988281 " fill-opacity="1" fill-rule="nonzero"/><path fill="#ffffff" d="M 84.972656 100.9375 C 86.527344 100.726562 89.378906 99.886719 87.765625 96.535156 C 87.609375 96.214844 87.222656 96.085938 86.902344 96.238281 C 85.914062 96.71875 84.378906 98.375 84.070312 99.988281 C 83.96875 100.527344 84.429688 101.011719 84.972656 100.9375 " fill-opacity="1" fill-rule="nonzero"/><path fill="#000000" d="M 84.941406 100.703125 L 84.972656 100.9375 L 84.941406 100.703125 C 85.773438 100.589844 87.25 100.25 87.792969 99.234375 C 88.144531 98.574219 88.066406 97.703125 87.554688 96.640625 C 87.507812 96.542969 87.425781 96.46875 87.320312 96.433594 C 87.21875 96.398438 87.105469 96.40625 87.003906 96.453125 C 86.074219 96.90625 84.597656 98.488281 84.304688 100.035156 C 84.269531 100.214844 84.320312 100.394531 84.449219 100.527344 C 84.578125 100.664062 84.757812 100.726562 84.941406 100.703125 Z M 84.867188 101.179688 C 84.582031 101.179688 84.304688 101.0625 84.105469 100.851562 C 83.875 100.605469 83.777344 100.277344 83.839844 99.945312 C 84.175781 98.1875 85.800781 96.511719 86.796875 96.027344 C 87.011719 95.921875 87.253906 95.910156 87.476562 95.988281 C 87.699219 96.0625 87.875 96.222656 87.976562 96.433594 C 88.558594 97.640625 88.636719 98.660156 88.207031 99.460938 C 87.597656 100.597656 86.128906 101.019531 85.003906 101.171875 C 84.957031 101.175781 84.910156 101.179688 84.867188 101.179688 " fill-opacity="1" fill-rule="nonzero"/></svg>